<svg width="1131" height="170" viewBox="0 0 1131 170" fill="none" xmlns="http://www.w3.org/2000/svg">
<g filter="url(#filter0_d_31_203)">
<mask id="path-1-outside-1_31_203" maskUnits="userSpaceOnUse" x="4.2959" y="0.44043" width="1123" height="130" fill="black">
<rect fill="white" x="4.2959" y="0.44043" width="1123" height="130"/>
<path d="M5.2959 100V7.71243H25.1359V80.0324H97.4559V100H5.2959Z"/>
<path d="M122.838 100C119.51 100 116.438 99.1471 113.622 97.4404C110.806 95.7338 108.545 93.4724 106.838 90.6564C105.131 87.8404 104.278 84.7684 104.278 81.4404V44.3204C104.278 40.9924 105.131 37.9204 106.838 35.1044C108.545 32.2884 110.806 30.0271 113.622 28.3204C116.438 26.6138 119.51 25.7604 122.838 25.7604H160.982C164.395 25.7604 167.51 26.6138 170.326 28.3204C173.142 30.0271 175.361 32.2884 176.982 35.1044C178.689 37.9204 179.542 40.9924 179.542 44.3204V81.4404C179.542 84.7684 178.689 87.8404 176.982 90.6564C175.361 93.4724 173.142 95.7338 170.326 97.4404C167.51 99.1471 164.395 100 160.982 100H122.838ZM123.862 80.4164H159.958V45.3444H123.862V80.4164Z"/>
<path d="M211.463 100C208.135 100 205.063 99.1471 202.247 97.4404C199.431 95.7338 197.17 93.4724 195.463 90.6564C193.756 87.8404 192.903 84.7684 192.903 81.4404V44.3204C192.903 40.9924 193.756 37.9204 195.463 35.1044C197.17 32.2884 199.431 30.0271 202.247 28.3204C205.063 26.6138 208.135 25.7604 211.463 25.7604H268.039V45.3444H212.487V80.4164H268.167V100H211.463Z"/>
<path d="M278.662 100V1.44043H298.246V53.0244H308.23L333.446 25.7604H353.158V32.4164L325.51 62.8804L353.158 93.3444V100H333.446L308.23 72.7364H298.246V100H278.662Z"/>
<path d="M379.588 100C376.26 100 373.188 99.1471 370.372 97.4404C367.556 95.7338 365.295 93.4724 363.588 90.6564C361.881 87.8404 361.028 84.7684 361.028 81.4404V44.3204C361.028 40.9924 361.881 37.9204 363.588 35.1044C365.295 32.2884 367.556 30.0271 370.372 28.3204C373.188 26.6138 376.26 25.7604 379.588 25.7604H417.732C421.145 25.7604 424.26 26.6138 427.076 28.3204C429.892 30.0271 432.111 32.2884 433.732 35.1044C435.439 37.9204 436.292 40.9924 436.292 44.3204V72.7364H380.612V80.4164H436.292V100H379.588ZM380.612 55.5844H416.708V45.3444H380.612V55.5844Z"/>
<path d="M448.906 100V44.3204C448.906 40.9924 449.759 37.9204 451.466 35.1044C453.173 32.2884 455.434 30.0271 458.25 28.3204C461.066 26.6138 464.181 25.7604 467.594 25.7604H508.554V45.3444H468.49V100H448.906Z"/>
<path d="M516.921 100V7.71243H536.761V80.0324H609.081V100H516.921Z"/>
<path d="M634.463 100C631.135 100 628.063 99.1471 625.247 97.4404C622.431 95.7338 620.17 93.4724 618.463 90.6564C616.756 87.8404 615.903 84.7684 615.903 81.4404V44.3204C615.903 40.9924 616.756 37.9204 618.463 35.1044C620.17 32.2884 622.431 30.0271 625.247 28.3204C628.063 26.6138 631.135 25.7604 634.463 25.7604H672.607C676.02 25.7604 679.135 26.6138 681.951 28.3204C684.767 30.0271 686.986 32.2884 688.607 35.1044C690.314 37.9204 691.167 40.9924 691.167 44.3204V72.7364H635.487V80.4164H691.167V100H634.463ZM635.487 55.5844H671.583V45.3444H635.487V55.5844Z"/>
<path d="M713.774 129.312V109.6H757.806V100H720.686C717.273 100 714.158 99.1471 711.342 97.4404C708.526 95.7338 706.265 93.4724 704.558 90.6564C702.851 87.8404 701.998 84.7684 701.998 81.4404V44.3204C701.998 40.9924 702.851 37.9204 704.558 35.1044C706.265 32.2884 708.526 30.0271 711.342 28.3204C714.158 26.6138 717.273 25.7604 720.686 25.7604H758.83C762.243 25.7604 765.358 26.6138 768.174 28.3204C770.99 30.0271 773.209 32.2884 774.83 35.1044C776.537 37.9204 777.39 40.9924 777.39 44.3204V110.752C777.39 114.166 776.537 117.28 774.83 120.096C773.209 122.912 770.99 125.131 768.174 126.752C765.358 128.459 762.243 129.312 758.83 129.312H713.774ZM721.582 80.4164H757.806V45.3444H721.582V80.4164Z"/>
<path d="M806.338 100C803.01 100 799.938 99.1471 797.122 97.4404C794.306 95.7338 792.045 93.4724 790.338 90.6564C788.631 87.8404 787.778 84.7684 787.778 81.4404V44.3204C787.778 40.9924 788.631 37.9204 790.338 35.1044C792.045 32.2884 794.306 30.0271 797.122 28.3204C799.938 26.6138 803.01 25.7604 806.338 25.7604H844.482C847.895 25.7604 851.01 26.6138 853.826 28.3204C856.642 30.0271 858.861 32.2884 860.482 35.1044C862.189 37.9204 863.042 40.9924 863.042 44.3204V72.7364H807.362V80.4164H863.042V100H806.338ZM807.362 55.5844H843.458V45.3444H807.362V55.5844Z"/>
<path d="M876.787 100V25.7604H933.491C936.904 25.7604 940.019 26.6138 942.835 28.3204C945.651 30.0271 947.87 32.2884 949.491 35.1044C951.198 37.9204 952.051 40.9924 952.051 44.3204V100H932.467V45.3444H896.371V100H876.787Z"/>
<path d="M980.504 100C977.091 100 973.976 99.1471 971.16 97.4404C968.344 95.7338 966.083 93.4724 964.376 90.6564C962.755 87.8404 961.944 84.7684 961.944 81.4404V44.3204C961.944 40.9924 962.755 37.9204 964.376 35.1044C966.083 32.2884 968.344 30.0271 971.16 28.3204C973.976 26.6138 977.091 25.7604 980.504 25.7604H1017.75V1.44043H1037.34V100H980.504ZM981.656 80.4164H1017.75V45.3444H981.656V80.4164Z"/>
<path d="M1069.08 100C1065.75 100 1062.68 99.1471 1059.86 97.4404C1057.05 95.7338 1054.79 93.4724 1053.08 90.6564C1051.37 87.8404 1050.52 84.7684 1050.52 81.4404V77.7284H1070.1V80.4164H1106.2V72.7364H1069.08C1065.75 72.7364 1062.68 71.8831 1059.86 70.1764C1057.05 68.4698 1054.79 66.2084 1053.08 63.3924C1051.37 60.5764 1050.52 57.5044 1050.52 54.1764V44.3204C1050.52 40.9924 1051.37 37.9204 1053.08 35.1044C1054.79 32.2884 1057.05 30.0271 1059.86 28.3204C1062.68 26.6138 1065.75 25.7604 1069.08 25.7604H1107.22C1110.64 25.7604 1113.75 26.6138 1116.57 28.3204C1119.38 30.0271 1121.64 32.2884 1123.35 35.1044C1125.06 37.9204 1125.91 40.9924 1125.91 44.3204V48.0324H1106.2V45.3444H1070.1V53.0244H1107.22C1110.64 53.0244 1113.75 53.8778 1116.57 55.5844C1119.38 57.2911 1121.64 59.5524 1123.35 62.3684C1125.06 65.1844 1125.91 68.2564 1125.91 71.5844V81.4404C1125.91 84.7684 1125.06 87.8404 1123.35 90.6564C1121.64 93.4724 1119.38 95.7338 1116.57 97.4404C1113.75 99.1471 1110.64 100 1107.22 100H1069.08Z"/>
</mask>
<path d="M5.2959 100V7.71243H25.1359V80.0324H97.4559V100H5.2959Z" fill="#F2F435"/>
<path d="M122.838 100C119.51 100 116.438 99.1471 113.622 97.4404C110.806 95.7338 108.545 93.4724 106.838 90.6564C105.131 87.8404 104.278 84.7684 104.278 81.4404V44.3204C104.278 40.9924 105.131 37.9204 106.838 35.1044C108.545 32.2884 110.806 30.0271 113.622 28.3204C116.438 26.6138 119.51 25.7604 122.838 25.7604H160.982C164.395 25.7604 167.51 26.6138 170.326 28.3204C173.142 30.0271 175.361 32.2884 176.982 35.1044C178.689 37.9204 179.542 40.9924 179.542 44.3204V81.4404C179.542 84.7684 178.689 87.8404 176.982 90.6564C175.361 93.4724 173.142 95.7338 170.326 97.4404C167.51 99.1471 164.395 100 160.982 100H122.838ZM123.862 80.4164H159.958V45.3444H123.862V80.4164Z" fill="#F2F435"/>
<path d="M211.463 100C208.135 100 205.063 99.1471 202.247 97.4404C199.431 95.7338 197.17 93.4724 195.463 90.6564C193.756 87.8404 192.903 84.7684 192.903 81.4404V44.3204C192.903 40.9924 193.756 37.9204 195.463 35.1044C197.17 32.2884 199.431 30.0271 202.247 28.3204C205.063 26.6138 208.135 25.7604 211.463 25.7604H268.039V45.3444H212.487V80.4164H268.167V100H211.463Z" fill="#F2F435"/>
<path d="M278.662 100V1.44043H298.246V53.0244H308.23L333.446 25.7604H353.158V32.4164L325.51 62.8804L353.158 93.3444V100H333.446L308.23 72.7364H298.246V100H278.662Z" fill="#F2F435"/>
<path d="M379.588 100C376.26 100 373.188 99.1471 370.372 97.4404C367.556 95.7338 365.295 93.4724 363.588 90.6564C361.881 87.8404 361.028 84.7684 361.028 81.4404V44.3204C361.028 40.9924 361.881 37.9204 363.588 35.1044C365.295 32.2884 367.556 30.0271 370.372 28.3204C373.188 26.6138 376.26 25.7604 379.588 25.7604H417.732C421.145 25.7604 424.26 26.6138 427.076 28.3204C429.892 30.0271 432.111 32.2884 433.732 35.1044C435.439 37.9204 436.292 40.9924 436.292 44.3204V72.7364H380.612V80.4164H436.292V100H379.588ZM380.612 55.5844H416.708V45.3444H380.612V55.5844Z" fill="#F2F435"/>
<path d="M448.906 100V44.3204C448.906 40.9924 449.759 37.9204 451.466 35.1044C453.173 32.2884 455.434 30.0271 458.25 28.3204C461.066 26.6138 464.181 25.7604 467.594 25.7604H508.554V45.3444H468.49V100H448.906Z" fill="#F2F435"/>
<path d="M516.921 100V7.71243H536.761V80.0324H609.081V100H516.921Z" fill="#F2F435"/>
<path d="M634.463 100C631.135 100 628.063 99.1471 625.247 97.4404C622.431 95.7338 620.17 93.4724 618.463 90.6564C616.756 87.8404 615.903 84.7684 615.903 81.4404V44.3204C615.903 40.9924 616.756 37.9204 618.463 35.1044C620.17 32.2884 622.431 30.0271 625.247 28.3204C628.063 26.6138 631.135 25.7604 634.463 25.7604H672.607C676.02 25.7604 679.135 26.6138 681.951 28.3204C684.767 30.0271 686.986 32.2884 688.607 35.1044C690.314 37.9204 691.167 40.9924 691.167 44.3204V72.7364H635.487V80.4164H691.167V100H634.463ZM635.487 55.5844H671.583V45.3444H635.487V55.5844Z" fill="#F2F435"/>
<path d="M713.774 129.312V109.6H757.806V100H720.686C717.273 100 714.158 99.1471 711.342 97.4404C708.526 95.7338 706.265 93.4724 704.558 90.6564C702.851 87.8404 701.998 84.7684 701.998 81.4404V44.3204C701.998 40.9924 702.851 37.9204 704.558 35.1044C706.265 32.2884 708.526 30.0271 711.342 28.3204C714.158 26.6138 717.273 25.7604 720.686 25.7604H758.83C762.243 25.7604 765.358 26.6138 768.174 28.3204C770.99 30.0271 773.209 32.2884 774.83 35.1044C776.537 37.9204 777.39 40.9924 777.39 44.3204V110.752C777.39 114.166 776.537 117.28 774.83 120.096C773.209 122.912 770.99 125.131 768.174 126.752C765.358 128.459 762.243 129.312 758.83 129.312H713.774ZM721.582 80.4164H757.806V45.3444H721.582V80.4164Z" fill="#F2F435"/>
<path d="M806.338 100C803.01 100 799.938 99.1471 797.122 97.4404C794.306 95.7338 792.045 93.4724 790.338 90.6564C788.631 87.8404 787.778 84.7684 787.778 81.4404V44.3204C787.778 40.9924 788.631 37.9204 790.338 35.1044C792.045 32.2884 794.306 30.0271 797.122 28.3204C799.938 26.6138 803.01 25.7604 806.338 25.7604H844.482C847.895 25.7604 851.01 26.6138 853.826 28.3204C856.642 30.0271 858.861 32.2884 860.482 35.1044C862.189 37.9204 863.042 40.9924 863.042 44.3204V72.7364H807.362V80.4164H863.042V100H806.338ZM807.362 55.5844H843.458V45.3444H807.362V55.5844Z" fill="#F2F435"/>
<path d="M876.787 100V25.7604H933.491C936.904 25.7604 940.019 26.6138 942.835 28.3204C945.651 30.0271 947.87 32.2884 949.491 35.1044C951.198 37.9204 952.051 40.9924 952.051 44.3204V100H932.467V45.3444H896.371V100H876.787Z" fill="#F2F435"/>
<path d="M980.504 100C977.091 100 973.976 99.1471 971.16 97.4404C968.344 95.7338 966.083 93.4724 964.376 90.6564C962.755 87.8404 961.944 84.7684 961.944 81.4404V44.3204C961.944 40.9924 962.755 37.9204 964.376 35.1044C966.083 32.2884 968.344 30.0271 971.16 28.3204C973.976 26.6138 977.091 25.7604 980.504 25.7604H1017.75V1.44043H1037.34V100H980.504ZM981.656 80.4164H1017.75V45.3444H981.656V80.4164Z" fill="#F2F435"/>
<path d="M1069.08 100C1065.75 100 1062.68 99.1471 1059.86 97.4404C1057.05 95.7338 1054.79 93.4724 1053.08 90.6564C1051.37 87.8404 1050.52 84.7684 1050.52 81.4404V77.7284H1070.1V80.4164H1106.2V72.7364H1069.08C1065.75 72.7364 1062.68 71.8831 1059.86 70.1764C1057.05 68.4698 1054.79 66.2084 1053.08 63.3924C1051.37 60.5764 1050.52 57.5044 1050.52 54.1764V44.3204C1050.52 40.9924 1051.37 37.9204 1053.08 35.1044C1054.79 32.2884 1057.05 30.0271 1059.86 28.3204C1062.68 26.6138 1065.75 25.7604 1069.08 25.7604H1107.22C1110.64 25.7604 1113.75 26.6138 1116.57 28.3204C1119.38 30.0271 1121.64 32.2884 1123.35 35.1044C1125.06 37.9204 1125.91 40.9924 1125.91 44.3204V48.0324H1106.2V45.3444H1070.1V53.0244H1107.22C1110.64 53.0244 1113.75 53.8778 1116.57 55.5844C1119.38 57.2911 1121.64 59.5524 1123.35 62.3684C1125.06 65.1844 1125.91 68.2564 1125.91 71.5844V81.4404C1125.91 84.7684 1125.06 87.8404 1123.35 90.6564C1121.64 93.4724 1119.38 95.7338 1116.57 97.4404C1113.75 99.1471 1110.64 100 1107.22 100H1069.08Z" fill="#F2F435"/>
<path d="M5.2959 100V7.71243H25.1359V80.0324H97.4559V100H5.2959Z" stroke="black" stroke-width="2" mask="url(#path-1-outside-1_31_203)"/>
<path d="M122.838 100C119.51 100 116.438 99.1471 113.622 97.4404C110.806 95.7338 108.545 93.4724 106.838 90.6564C105.131 87.8404 104.278 84.7684 104.278 81.4404V44.3204C104.278 40.9924 105.131 37.9204 106.838 35.1044C108.545 32.2884 110.806 30.0271 113.622 28.3204C116.438 26.6138 119.51 25.7604 122.838 25.7604H160.982C164.395 25.7604 167.51 26.6138 170.326 28.3204C173.142 30.0271 175.361 32.2884 176.982 35.1044C178.689 37.9204 179.542 40.9924 179.542 44.3204V81.4404C179.542 84.7684 178.689 87.8404 176.982 90.6564C175.361 93.4724 173.142 95.7338 170.326 97.4404C167.51 99.1471 164.395 100 160.982 100H122.838ZM123.862 80.4164H159.958V45.3444H123.862V80.4164Z" stroke="black" stroke-width="2" mask="url(#path-1-outside-1_31_203)"/>
<path d="M211.463 100C208.135 100 205.063 99.1471 202.247 97.4404C199.431 95.7338 197.17 93.4724 195.463 90.6564C193.756 87.8404 192.903 84.7684 192.903 81.4404V44.3204C192.903 40.9924 193.756 37.9204 195.463 35.1044C197.17 32.2884 199.431 30.0271 202.247 28.3204C205.063 26.6138 208.135 25.7604 211.463 25.7604H268.039V45.3444H212.487V80.4164H268.167V100H211.463Z" stroke="black" stroke-width="2" mask="url(#path-1-outside-1_31_203)"/>
<path d="M278.662 100V1.44043H298.246V53.0244H308.23L333.446 25.7604H353.158V32.4164L325.51 62.8804L353.158 93.3444V100H333.446L308.23 72.7364H298.246V100H278.662Z" stroke="black" stroke-width="2" mask="url(#path-1-outside-1_31_203)"/>
<path d="M379.588 100C376.26 100 373.188 99.1471 370.372 97.4404C367.556 95.7338 365.295 93.4724 363.588 90.6564C361.881 87.8404 361.028 84.7684 361.028 81.4404V44.3204C361.028 40.9924 361.881 37.9204 363.588 35.1044C365.295 32.2884 367.556 30.0271 370.372 28.3204C373.188 26.6138 376.26 25.7604 379.588 25.7604H417.732C421.145 25.7604 424.26 26.6138 427.076 28.3204C429.892 30.0271 432.111 32.2884 433.732 35.1044C435.439 37.9204 436.292 40.9924 436.292 44.3204V72.7364H380.612V80.4164H436.292V100H379.588ZM380.612 55.5844H416.708V45.3444H380.612V55.5844Z" stroke="black" stroke-width="2" mask="url(#path-1-outside-1_31_203)"/>
<path d="M448.906 100V44.3204C448.906 40.9924 449.759 37.9204 451.466 35.1044C453.173 32.2884 455.434 30.0271 458.25 28.3204C461.066 26.6138 464.181 25.7604 467.594 25.7604H508.554V45.3444H468.49V100H448.906Z" stroke="black" stroke-width="2" mask="url(#path-1-outside-1_31_203)"/>
<path d="M516.921 100V7.71243H536.761V80.0324H609.081V100H516.921Z" stroke="black" stroke-width="2" mask="url(#path-1-outside-1_31_203)"/>
<path d="M634.463 100C631.135 100 628.063 99.1471 625.247 97.4404C622.431 95.7338 620.17 93.4724 618.463 90.6564C616.756 87.8404 615.903 84.7684 615.903 81.4404V44.3204C615.903 40.9924 616.756 37.9204 618.463 35.1044C620.17 32.2884 622.431 30.0271 625.247 28.3204C628.063 26.6138 631.135 25.7604 634.463 25.7604H672.607C676.02 25.7604 679.135 26.6138 681.951 28.3204C684.767 30.0271 686.986 32.2884 688.607 35.1044C690.314 37.9204 691.167 40.9924 691.167 44.3204V72.7364H635.487V80.4164H691.167V100H634.463ZM635.487 55.5844H671.583V45.3444H635.487V55.5844Z" stroke="black" stroke-width="2" mask="url(#path-1-outside-1_31_203)"/>
<path d="M713.774 129.312V109.6H757.806V100H720.686C717.273 100 714.158 99.1471 711.342 97.4404C708.526 95.7338 706.265 93.4724 704.558 90.6564C702.851 87.8404 701.998 84.7684 701.998 81.4404V44.3204C701.998 40.9924 702.851 37.9204 704.558 35.1044C706.265 32.2884 708.526 30.0271 711.342 28.3204C714.158 26.6138 717.273 25.7604 720.686 25.7604H758.83C762.243 25.7604 765.358 26.6138 768.174 28.3204C770.99 30.0271 773.209 32.2884 774.83 35.1044C776.537 37.9204 777.39 40.9924 777.39 44.3204V110.752C777.39 114.166 776.537 117.28 774.83 120.096C773.209 122.912 770.99 125.131 768.174 126.752C765.358 128.459 762.243 129.312 758.83 129.312H713.774ZM721.582 80.4164H757.806V45.3444H721.582V80.4164Z" stroke="black" stroke-width="2" mask="url(#path-1-outside-1_31_203)"/>
<path d="M806.338 100C803.01 100 799.938 99.1471 797.122 97.4404C794.306 95.7338 792.045 93.4724 790.338 90.6564C788.631 87.8404 787.778 84.7684 787.778 81.4404V44.3204C787.778 40.9924 788.631 37.9204 790.338 35.1044C792.045 32.2884 794.306 30.0271 797.122 28.3204C799.938 26.6138 803.01 25.7604 806.338 25.7604H844.482C847.895 25.7604 851.01 26.6138 853.826 28.3204C856.642 30.0271 858.861 32.2884 860.482 35.1044C862.189 37.9204 863.042 40.9924 863.042 44.3204V72.7364H807.362V80.4164H863.042V100H806.338ZM807.362 55.5844H843.458V45.3444H807.362V55.5844Z" stroke="black" stroke-width="2" mask="url(#path-1-outside-1_31_203)"/>
<path d="M876.787 100V25.7604H933.491C936.904 25.7604 940.019 26.6138 942.835 28.3204C945.651 30.0271 947.87 32.2884 949.491 35.1044C951.198 37.9204 952.051 40.9924 952.051 44.3204V100H932.467V45.3444H896.371V100H876.787Z" stroke="black" stroke-width="2" mask="url(#path-1-outside-1_31_203)"/>
<path d="M980.504 100C977.091 100 973.976 99.1471 971.16 97.4404C968.344 95.7338 966.083 93.4724 964.376 90.6564C962.755 87.8404 961.944 84.7684 961.944 81.4404V44.3204C961.944 40.9924 962.755 37.9204 964.376 35.1044C966.083 32.2884 968.344 30.0271 971.16 28.3204C973.976 26.6138 977.091 25.7604 980.504 25.7604H1017.75V1.44043H1037.34V100H980.504ZM981.656 80.4164H1017.75V45.3444H981.656V80.4164Z" stroke="black" stroke-width="2" mask="url(#path-1-outside-1_31_203)"/>
<path d="M1069.08 100C1065.75 100 1062.68 99.1471 1059.86 97.4404C1057.05 95.7338 1054.79 93.4724 1053.08 90.6564C1051.37 87.8404 1050.52 84.7684 1050.52 81.4404V77.7284H1070.1V80.4164H1106.2V72.7364H1069.08C1065.75 72.7364 1062.68 71.8831 1059.86 70.1764C1057.05 68.4698 1054.79 66.2084 1053.08 63.3924C1051.37 60.5764 1050.52 57.5044 1050.52 54.1764V44.3204C1050.52 40.9924 1051.37 37.9204 1053.08 35.1044C1054.79 32.2884 1057.05 30.0271 1059.86 28.3204C1062.68 26.6138 1065.75 25.7604 1069.08 25.7604H1107.22C1110.64 25.7604 1113.75 26.6138 1116.57 28.3204C1119.38 30.0271 1121.64 32.2884 1123.35 35.1044C1125.06 37.9204 1125.91 40.9924 1125.91 44.3204V48.0324H1106.2V45.3444H1070.1V53.0244H1107.22C1110.64 53.0244 1113.75 53.8778 1116.57 55.5844C1119.38 57.2911 1121.64 59.5524 1123.35 62.3684C1125.06 65.1844 1125.91 68.2564 1125.91 71.5844V81.4404C1125.91 84.7684 1125.06 87.8404 1123.35 90.6564C1121.64 93.4724 1119.38 95.7338 1116.57 97.4404C1113.75 99.1471 1110.64 100 1107.22 100H1069.08Z" stroke="black" stroke-width="2" mask="url(#path-1-outside-1_31_203)"/>
</g>
<mask id="path-2-outside-2_31_203" maskUnits="userSpaceOnUse" x="0.0996094" y="90.9004" width="727" height="80" fill="black">
<rect fill="white" x="0.0996094" y="90.9004" width="727" height="80"/>
<path d="M1.09961 169V97.0004H16.3996V169H1.09961Z"/>
<path d="M28.7395 169V111H73.0395C75.7061 111 78.1395 111.667 80.3395 113C82.5395 114.334 84.2728 116.1 85.5395 118.3C86.8728 120.5 87.5395 122.9 87.5395 125.5V169H72.2395V126.3H44.0395V169H28.7395Z"/>
<path d="M114.868 169C112.202 169 109.768 168.334 107.568 167C105.368 165.667 103.602 163.9 102.268 161.7C100.935 159.5 100.268 157.1 100.268 154.5V93.8004H115.568V111H137.068V126.3H115.568V153.7H137.068V169H114.868Z"/>
<path d="M161.686 169C159.086 169 156.686 168.334 154.486 167C152.286 165.667 150.519 163.9 149.186 161.7C147.852 159.5 147.186 157.1 147.186 154.5V125.5C147.186 122.9 147.852 120.5 149.186 118.3C150.519 116.1 152.286 114.334 154.486 113C156.686 111.667 159.086 111 161.686 111H191.486C194.152 111 196.586 111.667 198.786 113C200.986 114.334 202.719 116.1 203.986 118.3C205.319 120.5 205.986 122.9 205.986 125.5V147.7H162.486V153.7H205.986V169H161.686ZM162.486 134.3H190.686V126.3H162.486V134.3Z"/>
<path d="M217.84 169V125.5C217.84 122.9 218.507 120.5 219.84 118.3C221.174 116.1 222.94 114.334 225.14 113C227.34 111.667 229.774 111 232.44 111H264.44V126.3H233.14V169H217.84Z"/>
<path d="M274.63 169V111H318.93C321.597 111 324.03 111.667 326.23 113C328.43 114.334 330.163 116.1 331.43 118.3C332.763 120.5 333.43 122.9 333.43 125.5V169H318.13V126.3H289.93V169H274.63Z"/>
<path d="M360.559 169C357.892 169 355.459 168.334 353.259 167C351.059 165.667 349.292 163.9 347.959 161.7C346.692 159.5 346.059 157.1 346.059 154.5V132.3H389.559V126.3H346.059V111H390.359C393.026 111 395.459 111.667 397.659 113C399.859 114.334 401.592 116.1 402.859 118.3C404.192 120.5 404.859 122.9 404.859 125.5V169H360.559ZM361.359 153.7H389.559V145.7H361.359V153.7Z"/>
<path d="M432.193 169C429.526 169 427.093 168.334 424.893 167C422.693 165.667 420.926 163.9 419.593 161.7C418.259 159.5 417.593 157.1 417.593 154.5V93.8004H432.893V111H454.393V126.3H432.893V153.7H454.393V169H432.193Z"/>
<path d="M464.61 169V111H479.91V169H464.61ZM464.61 107.4V92.0004H479.91V107.4H464.61Z"/>
<path d="M503.861 169C501.261 169 498.861 168.334 496.661 167C494.461 165.667 492.695 163.9 491.361 161.7C490.028 159.5 489.361 157.1 489.361 154.5V125.5C489.361 122.9 490.028 120.5 491.361 118.3C492.695 116.1 494.461 114.334 496.661 113C498.861 111.667 501.261 111 503.861 111H533.661C536.328 111 538.761 111.667 540.961 113C543.161 114.334 544.895 116.1 546.161 118.3C547.495 120.5 548.161 122.9 548.161 125.5V154.5C548.161 157.1 547.495 159.5 546.161 161.7C544.895 163.9 543.161 165.667 540.961 167C538.761 168.334 536.328 169 533.661 169H503.861ZM504.661 153.7H532.861V126.3H504.661V153.7Z"/>
<path d="M558.068 169V111H602.368C605.034 111 607.468 111.667 609.668 113C611.868 114.334 613.601 116.1 614.868 118.3C616.201 120.5 616.868 122.9 616.868 125.5V169H601.568V126.3H573.368V169H558.068Z"/>
<path d="M643.997 169C641.33 169 638.897 168.334 636.697 167C634.497 165.667 632.73 163.9 631.396 161.7C630.13 159.5 629.497 157.1 629.497 154.5V132.3H672.997V126.3H629.497V111H673.797C676.463 111 678.896 111.667 681.096 113C683.297 114.334 685.03 116.1 686.297 118.3C687.63 120.5 688.297 122.9 688.297 125.5V169H643.997ZM644.797 153.7H672.997V145.7H644.797V153.7Z"/>
<path d="M712.793 169C710.193 169 707.793 168.334 705.593 167C703.393 165.667 701.627 163.9 700.293 161.7C698.96 159.5 698.293 157.1 698.293 154.5V91.9004H713.693V153.7H725.393V169H712.793Z"/>
</mask>
<g filter="url(#filter1_i_31_203)">
<path d="M1.09961 169V97.0004H16.3996V169H1.09961Z" fill="#EE4E34"/>
<path d="M28.7395 169V111H73.0395C75.7061 111 78.1395 111.667 80.3395 113C82.5395 114.334 84.2728 116.1 85.5395 118.3C86.8728 120.5 87.5395 122.9 87.5395 125.5V169H72.2395V126.3H44.0395V169H28.7395Z" fill="#EE4E34"/>
<path d="M114.868 169C112.202 169 109.768 168.334 107.568 167C105.368 165.667 103.602 163.9 102.268 161.7C100.935 159.5 100.268 157.1 100.268 154.5V93.8004H115.568V111H137.068V126.3H115.568V153.7H137.068V169H114.868Z" fill="#EE4E34"/>
<path d="M161.686 169C159.086 169 156.686 168.334 154.486 167C152.286 165.667 150.519 163.9 149.186 161.7C147.852 159.5 147.186 157.1 147.186 154.5V125.5C147.186 122.9 147.852 120.5 149.186 118.3C150.519 116.1 152.286 114.334 154.486 113C156.686 111.667 159.086 111 161.686 111H191.486C194.152 111 196.586 111.667 198.786 113C200.986 114.334 202.719 116.1 203.986 118.3C205.319 120.5 205.986 122.9 205.986 125.5V147.7H162.486V153.7H205.986V169H161.686ZM162.486 134.3H190.686V126.3H162.486V134.3Z" fill="#EE4E34"/>
<path d="M217.84 169V125.5C217.84 122.9 218.507 120.5 219.84 118.3C221.174 116.1 222.94 114.334 225.14 113C227.34 111.667 229.774 111 232.44 111H264.44V126.3H233.14V169H217.84Z" fill="#EE4E34"/>
<path d="M274.63 169V111H318.93C321.597 111 324.03 111.667 326.23 113C328.43 114.334 330.163 116.1 331.43 118.3C332.763 120.5 333.43 122.9 333.43 125.5V169H318.13V126.3H289.93V169H274.63Z" fill="#EE4E34"/>
<path d="M360.559 169C357.892 169 355.459 168.334 353.259 167C351.059 165.667 349.292 163.9 347.959 161.7C346.692 159.5 346.059 157.1 346.059 154.5V132.3H389.559V126.3H346.059V111H390.359C393.026 111 395.459 111.667 397.659 113C399.859 114.334 401.592 116.1 402.859 118.3C404.192 120.5 404.859 122.9 404.859 125.5V169H360.559ZM361.359 153.7H389.559V145.7H361.359V153.7Z" fill="#EE4E34"/>
<path d="M432.193 169C429.526 169 427.093 168.334 424.893 167C422.693 165.667 420.926 163.9 419.593 161.7C418.259 159.5 417.593 157.1 417.593 154.5V93.8004H432.893V111H454.393V126.3H432.893V153.7H454.393V169H432.193Z" fill="#EE4E34"/>
<path d="M464.61 169V111H479.91V169H464.61ZM464.61 107.4V92.0004H479.91V107.4H464.61Z" fill="#EE4E34"/>
<path d="M503.861 169C501.261 169 498.861 168.334 496.661 167C494.461 165.667 492.695 163.9 491.361 161.7C490.028 159.5 489.361 157.1 489.361 154.5V125.5C489.361 122.9 490.028 120.5 491.361 118.3C492.695 116.1 494.461 114.334 496.661 113C498.861 111.667 501.261 111 503.861 111H533.661C536.328 111 538.761 111.667 540.961 113C543.161 114.334 544.895 116.1 546.161 118.3C547.495 120.5 548.161 122.9 548.161 125.5V154.5C548.161 157.1 547.495 159.5 546.161 161.7C544.895 163.9 543.161 165.667 540.961 167C538.761 168.334 536.328 169 533.661 169H503.861ZM504.661 153.7H532.861V126.3H504.661V153.7Z" fill="#EE4E34"/>
<path d="M558.068 169V111H602.368C605.034 111 607.468 111.667 609.668 113C611.868 114.334 613.601 116.1 614.868 118.3C616.201 120.5 616.868 122.9 616.868 125.5V169H601.568V126.3H573.368V169H558.068Z" fill="#EE4E34"/>
<path d="M643.997 169C641.33 169 638.897 168.334 636.697 167C634.497 165.667 632.73 163.9 631.396 161.7C630.13 159.5 629.497 157.1 629.497 154.5V132.3H672.997V126.3H629.497V111H673.797C676.463 111 678.896 111.667 681.096 113C683.297 114.334 685.03 116.1 686.297 118.3C687.63 120.5 688.297 122.9 688.297 125.5V169H643.997ZM644.797 153.7H672.997V145.7H644.797V153.7Z" fill="#EE4E34"/>
<path d="M712.793 169C710.193 169 707.793 168.334 705.593 167C703.393 165.667 701.627 163.9 700.293 161.7C698.96 159.5 698.293 157.1 698.293 154.5V91.9004H713.693V153.7H725.393V169H712.793Z" fill="#EE4E34"/>
</g>
<path d="M1.09961 169V97.0004H16.3996V169H1.09961Z" stroke="black" stroke-width="2" mask="url(#path-2-outside-2_31_203)"/>
<path d="M28.7395 169V111H73.0395C75.7061 111 78.1395 111.667 80.3395 113C82.5395 114.334 84.2728 116.1 85.5395 118.3C86.8728 120.5 87.5395 122.9 87.5395 125.5V169H72.2395V126.3H44.0395V169H28.7395Z" stroke="black" stroke-width="2" mask="url(#path-2-outside-2_31_203)"/>
<path d="M114.868 169C112.202 169 109.768 168.334 107.568 167C105.368 165.667 103.602 163.9 102.268 161.7C100.935 159.5 100.268 157.1 100.268 154.5V93.8004H115.568V111H137.068V126.3H115.568V153.7H137.068V169H114.868Z" stroke="black" stroke-width="2" mask="url(#path-2-outside-2_31_203)"/>
<path d="M161.686 169C159.086 169 156.686 168.334 154.486 167C152.286 165.667 150.519 163.9 149.186 161.7C147.852 159.5 147.186 157.1 147.186 154.5V125.5C147.186 122.9 147.852 120.5 149.186 118.3C150.519 116.1 152.286 114.334 154.486 113C156.686 111.667 159.086 111 161.686 111H191.486C194.152 111 196.586 111.667 198.786 113C200.986 114.334 202.719 116.1 203.986 118.3C205.319 120.5 205.986 122.9 205.986 125.5V147.7H162.486V153.7H205.986V169H161.686ZM162.486 134.3H190.686V126.3H162.486V134.3Z" stroke="black" stroke-width="2" mask="url(#path-2-outside-2_31_203)"/>
<path d="M217.84 169V125.5C217.84 122.9 218.507 120.5 219.84 118.3C221.174 116.1 222.94 114.334 225.14 113C227.34 111.667 229.774 111 232.44 111H264.44V126.3H233.14V169H217.84Z" stroke="black" stroke-width="2" mask="url(#path-2-outside-2_31_203)"/>
<path d="M274.63 169V111H318.93C321.597 111 324.03 111.667 326.23 113C328.43 114.334 330.163 116.1 331.43 118.3C332.763 120.5 333.43 122.9 333.43 125.5V169H318.13V126.3H289.93V169H274.63Z" stroke="black" stroke-width="2" mask="url(#path-2-outside-2_31_203)"/>
<path d="M360.559 169C357.892 169 355.459 168.334 353.259 167C351.059 165.667 349.292 163.9 347.959 161.7C346.692 159.5 346.059 157.1 346.059 154.5V132.3H389.559V126.3H346.059V111H390.359C393.026 111 395.459 111.667 397.659 113C399.859 114.334 401.592 116.1 402.859 118.3C404.192 120.5 404.859 122.9 404.859 125.5V169H360.559ZM361.359 153.7H389.559V145.7H361.359V153.7Z" stroke="black" stroke-width="2" mask="url(#path-2-outside-2_31_203)"/>
<path d="M432.193 169C429.526 169 427.093 168.334 424.893 167C422.693 165.667 420.926 163.9 419.593 161.7C418.259 159.5 417.593 157.1 417.593 154.5V93.8004H432.893V111H454.393V126.3H432.893V153.7H454.393V169H432.193Z" stroke="black" stroke-width="2" mask="url(#path-2-outside-2_31_203)"/>
<path d="M464.61 169V111H479.91V169H464.61ZM464.61 107.4V92.0004H479.91V107.4H464.61Z" stroke="black" stroke-width="2" mask="url(#path-2-outside-2_31_203)"/>
<path d="M503.861 169C501.261 169 498.861 168.334 496.661 167C494.461 165.667 492.695 163.9 491.361 161.7C490.028 159.5 489.361 157.1 489.361 154.5V125.5C489.361 122.9 490.028 120.5 491.361 118.3C492.695 116.1 494.461 114.334 496.661 113C498.861 111.667 501.261 111 503.861 111H533.661C536.328 111 538.761 111.667 540.961 113C543.161 114.334 544.895 116.1 546.161 118.3C547.495 120.5 548.161 122.9 548.161 125.5V154.5C548.161 157.1 547.495 159.5 546.161 161.7C544.895 163.9 543.161 165.667 540.961 167C538.761 168.334 536.328 169 533.661 169H503.861ZM504.661 153.7H532.861V126.3H504.661V153.7Z" stroke="black" stroke-width="2" mask="url(#path-2-outside-2_31_203)"/>
<path d="M558.068 169V111H602.368C605.034 111 607.468 111.667 609.668 113C611.868 114.334 613.601 116.1 614.868 118.3C616.201 120.5 616.868 122.9 616.868 125.5V169H601.568V126.3H573.368V169H558.068Z" stroke="black" stroke-width="2" mask="url(#path-2-outside-2_31_203)"/>
<path d="M643.997 169C641.33 169 638.897 168.334 636.697 167C634.497 165.667 632.73 163.9 631.396 161.7C630.13 159.5 629.497 157.1 629.497 154.5V132.3H672.997V126.3H629.497V111H673.797C676.463 111 678.896 111.667 681.096 113C683.297 114.334 685.03 116.1 686.297 118.3C687.63 120.5 688.297 122.9 688.297 125.5V169H643.997ZM644.797 153.7H672.997V145.7H644.797V153.7Z" stroke="black" stroke-width="2" mask="url(#path-2-outside-2_31_203)"/>
<path d="M712.793 169C710.193 169 707.793 168.334 705.593 167C703.393 165.667 701.627 163.9 700.293 161.7C698.96 159.5 698.293 157.1 698.293 154.5V91.9004H713.693V153.7H725.393V169H712.793Z" stroke="black" stroke-width="2" mask="url(#path-2-outside-2_31_203)"/>
<defs>
<filter id="filter0_d_31_203" x="0.295898" y="0.44043" width="1130.62" height="137.872" filterUnits="userSpaceOnUse" color-interpolation-filters="sRGB">
<feFlood flood-opacity="0" result="BackgroundImageFix"/>
<feColorMatrix in="SourceAlpha" type="matrix" values="0 0 0 0 0 0 0 0 0 0 0 0 0 0 0 0 0 0 127 0" result="hardAlpha"/>
<feOffset dy="4"/>
<feGaussianBlur stdDeviation="2"/>
<feComposite in2="hardAlpha" operator="out"/>
<feColorMatrix type="matrix" values="0 0 0 0 0 0 0 0 0 0 0 0 0 0 0 0 0 0 0.25 0"/>
<feBlend mode="normal" in2="BackgroundImageFix" result="effect1_dropShadow_31_203"/>
<feBlend mode="normal" in="SourceGraphic" in2="effect1_dropShadow_31_203" result="shape"/>
</filter>
<filter id="filter1_i_31_203" x="0.0996094" y="90.9004" width="728.294" height="83.0996" filterUnits="userSpaceOnUse" color-interpolation-filters="sRGB">
<feFlood flood-opacity="0" result="BackgroundImageFix"/>
<feBlend mode="normal" in="SourceGraphic" in2="BackgroundImageFix" result="shape"/>
<feColorMatrix in="SourceAlpha" type="matrix" values="0 0 0 0 0 0 0 0 0 0 0 0 0 0 0 0 0 0 127 0" result="hardAlpha"/>
<feOffset dx="2" dy="4"/>
<feGaussianBlur stdDeviation="2"/>
<feComposite in2="hardAlpha" operator="arithmetic" k2="-1" k3="1"/>
<feColorMatrix type="matrix" values="0 0 0 0 0 0 0 0 0 0 0 0 0 0 0 0 0 0 0.55 0"/>
<feBlend mode="normal" in2="shape" result="effect1_innerShadow_31_203"/>
</filter>
</defs>
</svg>
