<svg width="751" height="178" viewBox="0 0 751 178" fill="none" xmlns="http://www.w3.org/2000/svg">

<path  d="M4.77612 66.0482V4.98524H17.9034V52.8362H65.7544V66.0482H4.77612Z" fill="#F2F435"/>
<path  d="M82.5485 66.0482C80.3465 66.0482 78.3139 65.4836 76.4507 64.3543C74.5875 63.2251 73.0912 61.7289 71.962 59.8657C70.8328 58.0024 70.2682 55.9698 70.2682 53.7678V29.2071C70.2682 27.0052 70.8328 24.9725 71.962 23.1093C73.0912 21.2461 74.5875 19.7499 76.4507 18.6207C78.3139 17.4914 80.3465 16.9268 82.5485 16.9268H107.787C110.045 16.9268 112.106 17.4914 113.969 18.6207C115.832 19.7499 117.3 21.2461 118.373 23.1093C119.502 24.9725 120.067 27.0052 120.067 29.2071V53.7678C120.067 55.9698 119.502 58.0024 118.373 59.8657C117.3 61.7289 115.832 63.2251 113.969 64.3543C112.106 65.4836 110.045 66.0482 107.787 66.0482H82.5485ZM83.2261 53.0903H107.109V29.8847H83.2261V53.0903Z" fill="#F2F435"/>
<path  d="M141.188 66.0482C138.986 66.0482 136.953 65.4836 135.09 64.3543C133.227 63.2251 131.731 61.7289 130.601 59.8657C129.472 58.0024 128.907 55.9698 128.907 53.7678V29.2071C128.907 27.0052 129.472 24.9725 130.601 23.1093C131.731 21.2461 133.227 19.7499 135.09 18.6207C136.953 17.4914 138.986 16.9268 141.188 16.9268H178.622V29.8847H141.865V53.0903H178.706V66.0482H141.188Z" fill="#F2F435"/>
<path  d="M185.65 66.0482V0.835327H198.608V34.9662H205.214L221.899 16.9268H234.941V21.3308L216.648 41.4875L234.941 61.6442V66.0482H221.899L205.214 48.0088H198.608V66.0482H185.65Z" fill="#F2F435"/>
<path  d="M252.429 66.0482C250.227 66.0482 248.194 65.4836 246.331 64.3543C244.468 63.2251 242.972 61.7289 241.842 59.8657C240.713 58.0024 240.148 55.9698 240.148 53.7678V29.2071C240.148 27.0052 240.713 24.9725 241.842 23.1093C242.972 21.2461 244.468 19.7499 246.331 18.6207C248.194 17.4914 250.227 16.9268 252.429 16.9268H277.667C279.925 16.9268 281.986 17.4914 283.849 18.6207C285.713 19.7499 287.181 21.2461 288.253 23.1093C289.383 24.9725 289.947 27.0052 289.947 29.2071V48.0088H253.106V53.0903H289.947V66.0482H252.429ZM253.106 36.66H276.989V29.8847H253.106V36.66Z" fill="#F2F435"/>
<path  d="M298.293 66.0482V29.2071C298.293 27.0052 298.858 24.9725 299.987 23.1093C301.117 21.2461 302.613 19.7499 304.476 18.6207C306.339 17.4914 308.4 16.9268 310.658 16.9268H337.76V29.8847H311.251V66.0482H298.293Z" fill="#F2F435"/>
<path  d="M343.296 66.0482V4.98524H356.423V52.8362H404.274V66.0482H343.296Z" fill="#F2F435"/>
<path  d="M421.068 66.0482C418.866 66.0482 416.834 65.4836 414.971 64.3543C413.107 63.2251 411.611 61.7289 410.482 59.8657C409.353 58.0024 408.788 55.9698 408.788 53.7678V29.2071C408.788 27.0052 409.353 24.9725 410.482 23.1093C411.611 21.2461 413.107 19.7499 414.971 18.6207C416.834 17.4914 418.866 16.9268 421.068 16.9268H446.307C448.565 16.9268 450.626 17.4914 452.489 18.6207C454.352 19.7499 455.82 21.2461 456.893 23.1093C458.022 24.9725 458.587 27.0052 458.587 29.2071V48.0088H421.746V53.0903H458.587V66.0482H421.068ZM421.746 36.66H445.629V29.8847H421.746V36.66Z" fill="#F2F435"/>
<path  d="M473.545 85.4426V72.4001H502.679V66.0482H478.118C475.86 66.0482 473.799 65.4836 471.936 64.3543C470.073 63.2251 468.576 61.7289 467.447 59.8657C466.318 58.0024 465.753 55.9698 465.753 53.7678V29.2071C465.753 27.0052 466.318 24.9725 467.447 23.1093C468.576 21.2461 470.073 19.7499 471.936 18.6207C473.799 17.4914 475.86 16.9268 478.118 16.9268H503.357C505.615 16.9268 507.676 17.4914 509.539 18.6207C511.402 19.7499 512.87 21.2461 513.943 23.1093C515.072 24.9725 515.637 27.0052 515.637 29.2071V73.1623C515.637 75.4208 515.072 77.4816 513.943 79.3448C512.87 81.208 511.402 82.676 509.539 83.7488C507.676 84.878 505.615 85.4426 503.357 85.4426H473.545ZM478.711 53.0903H502.679V29.8847H478.711V53.0903Z" fill="#F2F435"/>
<path  d="M534.791 66.0482C532.589 66.0482 530.556 65.4836 528.693 64.3543C526.83 63.2251 525.333 61.7289 524.204 59.8657C523.075 58.0024 522.51 55.9698 522.51 53.7678V29.2071C522.51 27.0052 523.075 24.9725 524.204 23.1093C525.333 21.2461 526.83 19.7499 528.693 18.6207C530.556 17.4914 532.589 16.9268 534.791 16.9268H560.029C562.287 16.9268 564.348 17.4914 566.211 18.6207C568.075 19.7499 569.543 21.2461 570.615 23.1093C571.745 24.9725 572.309 27.0052 572.309 29.2071V48.0088H535.468V53.0903H572.309V66.0482H534.791ZM535.468 36.66H559.351V29.8847H535.468V36.66Z" fill="#F2F435"/>
<path  d="M581.404 66.0482V16.9268H618.922C621.181 16.9268 623.241 17.4914 625.105 18.6207C626.968 19.7499 628.436 21.2461 629.509 23.1093C630.638 24.9725 631.203 27.0052 631.203 29.2071V66.0482H618.245V29.8847H594.361V66.0482H581.404Z" fill="#F2F435"/>
<path  d="M650.029 66.0482C647.77 66.0482 645.709 65.4836 643.846 64.3543C641.983 63.2251 640.487 61.7289 639.357 59.8657C638.285 58.0024 637.748 55.9698 637.748 53.7678V29.2071C637.748 27.0052 638.285 24.9725 639.357 23.1093C640.487 21.2461 641.983 19.7499 643.846 18.6207C645.709 17.4914 647.77 16.9268 650.029 16.9268H674.674V0.835327H687.632V66.0482H650.029ZM650.791 53.0903H674.674V29.8847H650.791V53.0903Z" fill="#F2F435"/>
<path  d="M708.635 66.0482C706.433 66.0482 704.4 65.4836 702.537 64.3543C700.674 63.2251 699.177 61.7289 698.048 59.8657C696.919 58.0024 696.354 55.9698 696.354 53.7678V51.3118H709.312V53.0903H733.195V48.0088H708.635C706.433 48.0088 704.4 47.4442 702.537 46.3149C700.674 45.1857 699.177 43.6895 698.048 41.8263C696.919 39.963 696.354 37.9304 696.354 35.7284V29.2071C696.354 27.0052 696.919 24.9725 698.048 23.1093C699.177 21.2461 700.674 19.7499 702.537 18.6207C704.4 17.4914 706.433 16.9268 708.635 16.9268H733.873C736.131 16.9268 738.192 17.4914 740.056 18.6207C741.919 19.7499 743.415 21.2461 744.544 23.1093C745.673 24.9725 746.238 27.0052 746.238 29.2071V31.6632H733.195V29.8847H709.312V34.9662H733.873C736.131 34.9662 738.192 35.5308 740.056 36.66C741.919 37.7893 743.415 39.2855 744.544 41.1487C745.673 43.0119 746.238 45.0446 746.238 47.2465V53.7678C746.238 55.9698 745.673 58.0024 744.544 59.8657C743.415 61.7289 741.919 63.2251 740.056 64.3543C738.192 65.4836 736.131 66.0482 733.873 66.0482H708.635Z" fill="#F2F435"/>

<path d="M2 113.854V66.2144H12.1233V113.854H2Z" fill="#EE4E34"/>
<path d="M20.2881 113.854V75.4775H49.5995C51.3639 75.4775 52.9739 75.9186 54.4295 76.8009C55.8852 77.6831 57.0321 78.852 57.8702 80.3076C58.7524 81.7633 59.1935 83.3512 59.1935 85.0716V113.854H49.0701V85.6009H30.4114V113.854H20.2881Z" fill="#EE4E34"/>
<path d="M77.2758 113.854C75.5114 113.854 73.9014 113.413 72.4457 112.53C70.9901 111.648 69.8212 110.479 68.9389 109.024C68.0567 107.568 67.6156 105.98 67.6156 104.26V64.0971H77.739V75.4775H91.9646V85.6009H77.739V103.73H91.9646V113.854H77.2758Z" fill="#EE4E34"/>
<path d="M108.253 113.854C106.532 113.854 104.944 113.413 103.489 112.53C102.033 111.648 100.864 110.479 99.982 109.024C99.0998 107.568 98.6587 105.98 98.6587 104.26V85.0716C98.6587 83.3512 99.0998 81.7633 99.982 80.3076C100.864 78.852 102.033 77.6831 103.489 76.8009C104.944 75.9186 106.532 75.4775 108.253 75.4775H127.97C129.734 75.4775 131.344 75.9186 132.8 76.8009C134.256 77.6831 135.403 78.852 136.241 80.3076C137.123 81.7633 137.564 83.3512 137.564 85.0716V99.7603H108.782V103.73H137.564V113.854H108.253ZM108.782 90.8941H127.441V85.6009H108.782V90.8941Z" fill="#EE4E34"/>
<path d="M145.408 113.854V85.0716C145.408 83.3512 145.849 81.7633 146.731 80.3076C147.613 78.852 148.782 77.6831 150.238 76.8009C151.694 75.9186 153.304 75.4775 155.068 75.4775H176.241V85.6009H155.531V113.854H145.408Z" fill="#EE4E34"/>
<path d="M182.983 113.854V75.4775H212.295C214.059 75.4775 215.669 75.9186 217.125 76.8009C218.58 77.6831 219.727 78.852 220.565 80.3076C221.447 81.7633 221.889 83.3512 221.889 85.0716V113.854H211.765V85.6009H193.106V113.854H182.983Z" fill="#EE4E34"/>
<path d="M239.839 113.854C238.074 113.854 236.464 113.413 235.008 112.53C233.553 111.648 232.384 110.479 231.502 109.024C230.664 107.568 230.245 105.98 230.245 104.26V89.5708H259.027V85.6009H230.245V75.4775H259.556C261.32 75.4775 262.93 75.9186 264.386 76.8009C265.842 77.6831 266.988 78.852 267.827 80.3076C268.709 81.7633 269.15 83.3512 269.15 85.0716V113.854H239.839ZM240.368 103.73H259.027V98.437H240.368V103.73Z" fill="#EE4E34"/>
<path d="M287.235 113.854C285.471 113.854 283.861 113.413 282.405 112.53C280.95 111.648 279.781 110.479 278.898 109.024C278.016 107.568 277.575 105.98 277.575 104.26V64.0971H287.699V75.4775H301.924V85.6009H287.699V103.73H301.924V113.854H287.235Z" fill="#EE4E34"/>
<path d="M308.684 113.854V75.4775H318.808V113.854H308.684ZM308.684 73.0956V62.9061H318.808V73.0956H308.684Z" fill="#EE4E34"/>
<path d="M334.655 113.854C332.935 113.854 331.347 113.413 329.892 112.53C328.436 111.648 327.267 110.479 326.385 109.024C325.503 107.568 325.061 105.98 325.061 104.26V85.0716C325.061 83.3512 325.503 81.7633 326.385 80.3076C327.267 78.852 328.436 77.6831 329.892 76.8009C331.347 75.9186 332.935 75.4775 334.655 75.4775H354.373C356.137 75.4775 357.747 75.9186 359.203 76.8009C360.659 77.6831 361.805 78.852 362.644 80.3076C363.526 81.7633 363.967 83.3512 363.967 85.0716V104.26C363.967 105.98 363.526 107.568 362.644 109.024C361.805 110.479 360.659 111.648 359.203 112.53C357.747 113.413 356.137 113.854 354.373 113.854H334.655ZM335.185 103.73H353.843V85.6009H335.185V103.73Z" fill="#EE4E34"/>
<path d="M370.521 113.854V75.4775H399.833C401.597 75.4775 403.207 75.9186 404.663 76.8009C406.118 77.6831 407.265 78.852 408.103 80.3076C408.986 81.7633 409.427 83.3512 409.427 85.0716V113.854H399.303V85.6009H380.645V113.854H370.521Z" fill="#EE4E34"/>
<path d="M427.377 113.854C425.612 113.854 424.002 113.413 422.547 112.53C421.091 111.648 419.922 110.479 419.04 109.024C418.202 107.568 417.783 105.98 417.783 104.26V89.5708H446.565V85.6009H417.783V75.4775H447.094C448.859 75.4775 450.469 75.9186 451.924 76.8009C453.38 77.6831 454.527 78.852 455.365 80.3076C456.247 81.7633 456.688 83.3512 456.688 85.0716V113.854H427.377ZM427.906 103.73H446.565V98.437H427.906V103.73Z" fill="#EE4E34"/>
<path d="M472.897 113.854C471.176 113.854 469.588 113.413 468.133 112.53C466.677 111.648 465.508 110.479 464.626 109.024C463.744 107.568 463.303 105.98 463.303 104.26V62.8399H473.492V103.73H481.233V113.854H472.897Z" fill="#EE4E34"/>

</svg>
