<svg width="517" height="54" viewBox="0 0 517 54" fill="none" xmlns="http://www.w3.org/2000/svg">
<g filter="url(#filter0_d_7_13)">
<mask id="path-1-outside-1_7_13" maskUnits="userSpaceOnUse" x="4.89502" y="0" width="509" height="42" fill="black">
<rect fill="white" x="4.89502" width="509" height="42"/>
<path d="M5.89502 31.5868V2.94643H14.8554V25.39H47.5174V31.5868H5.89502Z"/>
<path d="M58.9807 31.5868C57.4777 31.5868 56.0903 31.322 54.8185 30.7923C53.5467 30.2627 52.5254 29.5609 51.7546 28.687C50.9838 27.8131 50.5984 26.8597 50.5984 25.8269V14.3072C50.5984 13.2744 50.9838 12.3211 51.7546 11.4472C52.5254 10.5733 53.5467 9.87149 54.8185 9.34185C56.0903 8.81221 57.4777 8.54739 58.9807 8.54739H76.2077C77.7493 8.54739 79.156 8.81221 80.4278 9.34185C81.6996 9.87149 82.7016 10.5733 83.4338 11.4472C84.2046 12.3211 84.59 13.2744 84.59 14.3072V25.8269C84.59 26.8597 84.2046 27.8131 83.4338 28.687C82.7016 29.5609 81.6996 30.2627 80.4278 30.7923C79.156 31.322 77.7493 31.5868 76.2077 31.5868H58.9807ZM59.4432 25.5092H75.7453V14.625H59.4432V25.5092Z"/>
<path d="M99.0065 31.5868C97.5035 31.5868 96.1161 31.322 94.8443 30.7923C93.5725 30.2627 92.5512 29.5609 91.7804 28.687C91.0096 27.8131 90.6243 26.8597 90.6243 25.8269V14.3072C90.6243 13.2744 91.0096 12.3211 91.7804 11.4472C92.5512 10.5733 93.5725 9.87149 94.8443 9.34185C96.1161 8.81221 97.5035 8.54739 99.0065 8.54739H124.558V14.625H99.469V25.5092H124.616V31.5868H99.0065Z"/>
<path d="M129.356 31.5868V1H138.2V17.0084H142.71L154.098 8.54739H163V10.613L150.514 20.0671L163 29.5212V31.5868H154.098L142.71 23.1258H138.2V31.5868H129.356Z"/>
<path d="M174.937 31.5868C173.434 31.5868 172.047 31.322 170.775 30.7923C169.503 30.2627 168.482 29.5609 167.711 28.687C166.94 27.8131 166.555 26.8597 166.555 25.8269V14.3072C166.555 13.2744 166.94 12.3211 167.711 11.4472C168.482 10.5733 169.503 9.87149 170.775 9.34185C172.047 8.81221 173.434 8.54739 174.937 8.54739H192.164C193.706 8.54739 195.112 8.81221 196.384 9.34185C197.656 9.87149 198.658 10.5733 199.39 11.4472C200.161 12.3211 200.546 13.2744 200.546 14.3072V23.1258H175.4V25.5092H200.546V31.5868H174.937ZM175.4 17.8029H191.702V14.625H175.4V17.8029Z"/>
<path d="M206.243 31.5868V14.3072C206.243 13.2744 206.629 12.3211 207.399 11.4472C208.17 10.5733 209.192 9.87149 210.463 9.34185C211.735 8.81221 213.142 8.54739 214.683 8.54739H233.182V14.625H215.088V31.5868H206.243Z"/>
<path d="M236.961 31.5868V2.94643H245.921V25.39H278.583V31.5868H236.961Z"/>
<path d="M290.047 31.5868C288.544 31.5868 287.156 31.322 285.884 30.7923C284.613 30.2627 283.591 29.5609 282.821 28.687C282.05 27.8131 281.664 26.8597 281.664 25.8269V14.3072C281.664 13.2744 282.05 12.3211 282.821 11.4472C283.591 10.5733 284.613 9.87149 285.884 9.34185C287.156 8.81221 288.544 8.54739 290.047 8.54739H307.274C308.815 8.54739 310.222 8.81221 311.494 9.34185C312.766 9.87149 313.768 10.5733 314.5 11.4472C315.271 12.3211 315.656 13.2744 315.656 14.3072V23.1258H290.509V25.5092H315.656V31.5868H290.047ZM290.509 17.8029H306.811V14.625H290.509V17.8029Z"/>
<path d="M325.866 40.6834V34.566H345.752V31.5868H328.988C327.446 31.5868 326.039 31.322 324.768 30.7923C323.496 30.2627 322.475 29.5609 321.704 28.687C320.933 27.8131 320.548 26.8597 320.548 25.8269V14.3072C320.548 13.2744 320.933 12.3211 321.704 11.4472C322.475 10.5733 323.496 9.87149 324.768 9.34185C326.039 8.81221 327.446 8.54739 328.988 8.54739H346.215C347.756 8.54739 349.163 8.81221 350.435 9.34185C351.707 9.87149 352.709 10.5733 353.441 11.4472C354.212 12.3211 354.597 13.2744 354.597 14.3072V34.9235C354.597 35.9828 354.212 36.9494 353.441 37.8233C352.709 38.6972 351.707 39.3858 350.435 39.8889C349.163 40.4186 347.756 40.6834 346.215 40.6834H325.866ZM329.392 25.5092H345.752V14.625H329.392V25.5092Z"/>
<path d="M367.671 31.5868C366.168 31.5868 364.78 31.322 363.509 30.7923C362.237 30.2627 361.216 29.5609 360.445 28.687C359.674 27.8131 359.289 26.8597 359.289 25.8269V14.3072C359.289 13.2744 359.674 12.3211 360.445 11.4472C361.216 10.5733 362.237 9.87149 363.509 9.34185C364.78 8.81221 366.168 8.54739 367.671 8.54739H384.898C386.439 8.54739 387.846 8.81221 389.118 9.34185C390.39 9.87149 391.392 10.5733 392.124 11.4472C392.895 12.3211 393.28 13.2744 393.28 14.3072V23.1258H368.133V25.5092H393.28V31.5868H367.671ZM368.133 17.8029H384.435V14.625H368.133V17.8029Z"/>
<path d="M399.488 31.5868V8.54739H425.097C426.639 8.54739 428.045 8.81221 429.317 9.34185C430.589 9.87149 431.591 10.5733 432.323 11.4472C433.094 12.3211 433.479 13.2744 433.479 14.3072V31.5868H424.635V14.625H408.333V31.5868H399.488Z"/>
<path d="M446.33 31.5868C444.788 31.5868 443.381 31.322 442.11 30.7923C440.838 30.2627 439.817 29.5609 439.046 28.687C438.314 27.8131 437.947 26.8597 437.947 25.8269V14.3072C437.947 13.2744 438.314 12.3211 439.046 11.4472C439.817 10.5733 440.838 9.87149 442.11 9.34185C443.381 8.81221 444.788 8.54739 446.33 8.54739H463.152V1H471.997V31.5868H446.33ZM446.85 25.5092H463.152V14.625H446.85V25.5092Z"/>
<path d="M486.333 31.5868C484.83 31.5868 483.443 31.322 482.171 30.7923C480.899 30.2627 479.878 29.5609 479.107 28.687C478.336 27.8131 477.951 26.8597 477.951 25.8269V24.675H486.795V25.5092H503.098V23.1258H486.333C484.83 23.1258 483.443 22.8609 482.171 22.3313C480.899 21.8017 479.878 21.0999 479.107 20.226C478.336 19.3521 477.951 18.3987 477.951 17.3659V14.3072C477.951 13.2744 478.336 12.3211 479.107 11.4472C479.878 10.5733 480.899 9.87149 482.171 9.34185C483.443 8.81221 484.83 8.54739 486.333 8.54739H503.56C505.102 8.54739 506.508 8.81221 507.78 9.34185C509.052 9.87149 510.073 10.5733 510.844 11.4472C511.615 12.3211 512 13.2744 512 14.3072V15.4592H503.098V14.625H486.795V17.0084H503.56C505.102 17.0084 506.508 17.2732 507.78 17.8029C509.052 18.3325 510.073 19.0343 510.844 19.9082C511.615 20.7821 512 21.7355 512 22.7683V25.8269C512 26.8597 511.615 27.8131 510.844 28.687C510.073 29.5609 509.052 30.2627 507.78 30.7923C506.508 31.322 505.102 31.5868 503.56 31.5868H486.333Z"/>
</mask>
<path d="M5.89502 31.5868V2.94643H14.8554V25.39H47.5174V31.5868H5.89502Z" fill="#F2F435"/>
<path d="M58.9807 31.5868C57.4777 31.5868 56.0903 31.322 54.8185 30.7923C53.5467 30.2627 52.5254 29.5609 51.7546 28.687C50.9838 27.8131 50.5984 26.8597 50.5984 25.8269V14.3072C50.5984 13.2744 50.9838 12.3211 51.7546 11.4472C52.5254 10.5733 53.5467 9.87149 54.8185 9.34185C56.0903 8.81221 57.4777 8.54739 58.9807 8.54739H76.2077C77.7493 8.54739 79.156 8.81221 80.4278 9.34185C81.6996 9.87149 82.7016 10.5733 83.4338 11.4472C84.2046 12.3211 84.59 13.2744 84.59 14.3072V25.8269C84.59 26.8597 84.2046 27.8131 83.4338 28.687C82.7016 29.5609 81.6996 30.2627 80.4278 30.7923C79.156 31.322 77.7493 31.5868 76.2077 31.5868H58.9807ZM59.4432 25.5092H75.7453V14.625H59.4432V25.5092Z" fill="#F2F435"/>
<path d="M99.0065 31.5868C97.5035 31.5868 96.1161 31.322 94.8443 30.7923C93.5725 30.2627 92.5512 29.5609 91.7804 28.687C91.0096 27.8131 90.6243 26.8597 90.6243 25.8269V14.3072C90.6243 13.2744 91.0096 12.3211 91.7804 11.4472C92.5512 10.5733 93.5725 9.87149 94.8443 9.34185C96.1161 8.81221 97.5035 8.54739 99.0065 8.54739H124.558V14.625H99.469V25.5092H124.616V31.5868H99.0065Z" fill="#F2F435"/>
<path d="M129.356 31.5868V1H138.2V17.0084H142.71L154.098 8.54739H163V10.613L150.514 20.0671L163 29.5212V31.5868H154.098L142.71 23.1258H138.2V31.5868H129.356Z" fill="#F2F435"/>
<path d="M174.937 31.5868C173.434 31.5868 172.047 31.322 170.775 30.7923C169.503 30.2627 168.482 29.5609 167.711 28.687C166.94 27.8131 166.555 26.8597 166.555 25.8269V14.3072C166.555 13.2744 166.94 12.3211 167.711 11.4472C168.482 10.5733 169.503 9.87149 170.775 9.34185C172.047 8.81221 173.434 8.54739 174.937 8.54739H192.164C193.706 8.54739 195.112 8.81221 196.384 9.34185C197.656 9.87149 198.658 10.5733 199.39 11.4472C200.161 12.3211 200.546 13.2744 200.546 14.3072V23.1258H175.4V25.5092H200.546V31.5868H174.937ZM175.4 17.8029H191.702V14.625H175.4V17.8029Z" fill="#F2F435"/>
<path d="M206.243 31.5868V14.3072C206.243 13.2744 206.629 12.3211 207.399 11.4472C208.17 10.5733 209.192 9.87149 210.463 9.34185C211.735 8.81221 213.142 8.54739 214.683 8.54739H233.182V14.625H215.088V31.5868H206.243Z" fill="#F2F435"/>
<path d="M236.961 31.5868V2.94643H245.921V25.39H278.583V31.5868H236.961Z" fill="#F2F435"/>
<path d="M290.047 31.5868C288.544 31.5868 287.156 31.322 285.884 30.7923C284.613 30.2627 283.591 29.5609 282.821 28.687C282.05 27.8131 281.664 26.8597 281.664 25.8269V14.3072C281.664 13.2744 282.05 12.3211 282.821 11.4472C283.591 10.5733 284.613 9.87149 285.884 9.34185C287.156 8.81221 288.544 8.54739 290.047 8.54739H307.274C308.815 8.54739 310.222 8.81221 311.494 9.34185C312.766 9.87149 313.768 10.5733 314.5 11.4472C315.271 12.3211 315.656 13.2744 315.656 14.3072V23.1258H290.509V25.5092H315.656V31.5868H290.047ZM290.509 17.8029H306.811V14.625H290.509V17.8029Z" fill="#F2F435"/>
<path d="M325.866 40.6834V34.566H345.752V31.5868H328.988C327.446 31.5868 326.039 31.322 324.768 30.7923C323.496 30.2627 322.475 29.5609 321.704 28.687C320.933 27.8131 320.548 26.8597 320.548 25.8269V14.3072C320.548 13.2744 320.933 12.3211 321.704 11.4472C322.475 10.5733 323.496 9.87149 324.768 9.34185C326.039 8.81221 327.446 8.54739 328.988 8.54739H346.215C347.756 8.54739 349.163 8.81221 350.435 9.34185C351.707 9.87149 352.709 10.5733 353.441 11.4472C354.212 12.3211 354.597 13.2744 354.597 14.3072V34.9235C354.597 35.9828 354.212 36.9494 353.441 37.8233C352.709 38.6972 351.707 39.3858 350.435 39.8889C349.163 40.4186 347.756 40.6834 346.215 40.6834H325.866ZM329.392 25.5092H345.752V14.625H329.392V25.5092Z" fill="#F2F435"/>
<path d="M367.671 31.5868C366.168 31.5868 364.78 31.322 363.509 30.7923C362.237 30.2627 361.216 29.5609 360.445 28.687C359.674 27.8131 359.289 26.8597 359.289 25.8269V14.3072C359.289 13.2744 359.674 12.3211 360.445 11.4472C361.216 10.5733 362.237 9.87149 363.509 9.34185C364.78 8.81221 366.168 8.54739 367.671 8.54739H384.898C386.439 8.54739 387.846 8.81221 389.118 9.34185C390.39 9.87149 391.392 10.5733 392.124 11.4472C392.895 12.3211 393.28 13.2744 393.28 14.3072V23.1258H368.133V25.5092H393.28V31.5868H367.671ZM368.133 17.8029H384.435V14.625H368.133V17.8029Z" fill="#F2F435"/>
<path d="M399.488 31.5868V8.54739H425.097C426.639 8.54739 428.045 8.81221 429.317 9.34185C430.589 9.87149 431.591 10.5733 432.323 11.4472C433.094 12.3211 433.479 13.2744 433.479 14.3072V31.5868H424.635V14.625H408.333V31.5868H399.488Z" fill="#F2F435"/>
<path d="M446.33 31.5868C444.788 31.5868 443.381 31.322 442.11 30.7923C440.838 30.2627 439.817 29.5609 439.046 28.687C438.314 27.8131 437.947 26.8597 437.947 25.8269V14.3072C437.947 13.2744 438.314 12.3211 439.046 11.4472C439.817 10.5733 440.838 9.87149 442.11 9.34185C443.381 8.81221 444.788 8.54739 446.33 8.54739H463.152V1H471.997V31.5868H446.33ZM446.85 25.5092H463.152V14.625H446.85V25.5092Z" fill="#F2F435"/>
<path d="M486.333 31.5868C484.83 31.5868 483.443 31.322 482.171 30.7923C480.899 30.2627 479.878 29.5609 479.107 28.687C478.336 27.8131 477.951 26.8597 477.951 25.8269V24.675H486.795V25.5092H503.098V23.1258H486.333C484.83 23.1258 483.443 22.8609 482.171 22.3313C480.899 21.8017 479.878 21.0999 479.107 20.226C478.336 19.3521 477.951 18.3987 477.951 17.3659V14.3072C477.951 13.2744 478.336 12.3211 479.107 11.4472C479.878 10.5733 480.899 9.87149 482.171 9.34185C483.443 8.81221 484.83 8.54739 486.333 8.54739H503.56C505.102 8.54739 506.508 8.81221 507.78 9.34185C509.052 9.87149 510.073 10.5733 510.844 11.4472C511.615 12.3211 512 13.2744 512 14.3072V15.4592H503.098V14.625H486.795V17.0084H503.56C505.102 17.0084 506.508 17.2732 507.78 17.8029C509.052 18.3325 510.073 19.0343 510.844 19.9082C511.615 20.7821 512 21.7355 512 22.7683V25.8269C512 26.8597 511.615 27.8131 510.844 28.687C510.073 29.5609 509.052 30.2627 507.78 30.7923C506.508 31.322 505.102 31.5868 503.56 31.5868H486.333Z" fill="#F2F435"/>
<path d="M5.89502 31.5868V2.94643H14.8554V25.39H47.5174V31.5868H5.89502Z" stroke="black" stroke-width="2" mask="url(#path-1-outside-1_7_13)"/>
<path d="M58.9807 31.5868C57.4777 31.5868 56.0903 31.322 54.8185 30.7923C53.5467 30.2627 52.5254 29.5609 51.7546 28.687C50.9838 27.8131 50.5984 26.8597 50.5984 25.8269V14.3072C50.5984 13.2744 50.9838 12.3211 51.7546 11.4472C52.5254 10.5733 53.5467 9.87149 54.8185 9.34185C56.0903 8.81221 57.4777 8.54739 58.9807 8.54739H76.2077C77.7493 8.54739 79.156 8.81221 80.4278 9.34185C81.6996 9.87149 82.7016 10.5733 83.4338 11.4472C84.2046 12.3211 84.59 13.2744 84.59 14.3072V25.8269C84.59 26.8597 84.2046 27.8131 83.4338 28.687C82.7016 29.5609 81.6996 30.2627 80.4278 30.7923C79.156 31.322 77.7493 31.5868 76.2077 31.5868H58.9807ZM59.4432 25.5092H75.7453V14.625H59.4432V25.5092Z" stroke="black" stroke-width="2" mask="url(#path-1-outside-1_7_13)"/>
<path d="M99.0065 31.5868C97.5035 31.5868 96.1161 31.322 94.8443 30.7923C93.5725 30.2627 92.5512 29.5609 91.7804 28.687C91.0096 27.8131 90.6243 26.8597 90.6243 25.8269V14.3072C90.6243 13.2744 91.0096 12.3211 91.7804 11.4472C92.5512 10.5733 93.5725 9.87149 94.8443 9.34185C96.1161 8.81221 97.5035 8.54739 99.0065 8.54739H124.558V14.625H99.469V25.5092H124.616V31.5868H99.0065Z" stroke="black" stroke-width="2" mask="url(#path-1-outside-1_7_13)"/>
<path d="M129.356 31.5868V1H138.2V17.0084H142.71L154.098 8.54739H163V10.613L150.514 20.0671L163 29.5212V31.5868H154.098L142.71 23.1258H138.2V31.5868H129.356Z" stroke="black" stroke-width="2" mask="url(#path-1-outside-1_7_13)"/>
<path d="M174.937 31.5868C173.434 31.5868 172.047 31.322 170.775 30.7923C169.503 30.2627 168.482 29.5609 167.711 28.687C166.94 27.8131 166.555 26.8597 166.555 25.8269V14.3072C166.555 13.2744 166.94 12.3211 167.711 11.4472C168.482 10.5733 169.503 9.87149 170.775 9.34185C172.047 8.81221 173.434 8.54739 174.937 8.54739H192.164C193.706 8.54739 195.112 8.81221 196.384 9.34185C197.656 9.87149 198.658 10.5733 199.39 11.4472C200.161 12.3211 200.546 13.2744 200.546 14.3072V23.1258H175.4V25.5092H200.546V31.5868H174.937ZM175.4 17.8029H191.702V14.625H175.4V17.8029Z" stroke="black" stroke-width="2" mask="url(#path-1-outside-1_7_13)"/>
<path d="M206.243 31.5868V14.3072C206.243 13.2744 206.629 12.3211 207.399 11.4472C208.17 10.5733 209.192 9.87149 210.463 9.34185C211.735 8.81221 213.142 8.54739 214.683 8.54739H233.182V14.625H215.088V31.5868H206.243Z" stroke="black" stroke-width="2" mask="url(#path-1-outside-1_7_13)"/>
<path d="M236.961 31.5868V2.94643H245.921V25.39H278.583V31.5868H236.961Z" stroke="black" stroke-width="2" mask="url(#path-1-outside-1_7_13)"/>
<path d="M290.047 31.5868C288.544 31.5868 287.156 31.322 285.884 30.7923C284.613 30.2627 283.591 29.5609 282.821 28.687C282.05 27.8131 281.664 26.8597 281.664 25.8269V14.3072C281.664 13.2744 282.05 12.3211 282.821 11.4472C283.591 10.5733 284.613 9.87149 285.884 9.34185C287.156 8.81221 288.544 8.54739 290.047 8.54739H307.274C308.815 8.54739 310.222 8.81221 311.494 9.34185C312.766 9.87149 313.768 10.5733 314.5 11.4472C315.271 12.3211 315.656 13.2744 315.656 14.3072V23.1258H290.509V25.5092H315.656V31.5868H290.047ZM290.509 17.8029H306.811V14.625H290.509V17.8029Z" stroke="black" stroke-width="2" mask="url(#path-1-outside-1_7_13)"/>
<path d="M325.866 40.6834V34.566H345.752V31.5868H328.988C327.446 31.5868 326.039 31.322 324.768 30.7923C323.496 30.2627 322.475 29.5609 321.704 28.687C320.933 27.8131 320.548 26.8597 320.548 25.8269V14.3072C320.548 13.2744 320.933 12.3211 321.704 11.4472C322.475 10.5733 323.496 9.87149 324.768 9.34185C326.039 8.81221 327.446 8.54739 328.988 8.54739H346.215C347.756 8.54739 349.163 8.81221 350.435 9.34185C351.707 9.87149 352.709 10.5733 353.441 11.4472C354.212 12.3211 354.597 13.2744 354.597 14.3072V34.9235C354.597 35.9828 354.212 36.9494 353.441 37.8233C352.709 38.6972 351.707 39.3858 350.435 39.8889C349.163 40.4186 347.756 40.6834 346.215 40.6834H325.866ZM329.392 25.5092H345.752V14.625H329.392V25.5092Z" stroke="black" stroke-width="2" mask="url(#path-1-outside-1_7_13)"/>
<path d="M367.671 31.5868C366.168 31.5868 364.78 31.322 363.509 30.7923C362.237 30.2627 361.216 29.5609 360.445 28.687C359.674 27.8131 359.289 26.8597 359.289 25.8269V14.3072C359.289 13.2744 359.674 12.3211 360.445 11.4472C361.216 10.5733 362.237 9.87149 363.509 9.34185C364.78 8.81221 366.168 8.54739 367.671 8.54739H384.898C386.439 8.54739 387.846 8.81221 389.118 9.34185C390.39 9.87149 391.392 10.5733 392.124 11.4472C392.895 12.3211 393.28 13.2744 393.28 14.3072V23.1258H368.133V25.5092H393.28V31.5868H367.671ZM368.133 17.8029H384.435V14.625H368.133V17.8029Z" stroke="black" stroke-width="2" mask="url(#path-1-outside-1_7_13)"/>
<path d="M399.488 31.5868V8.54739H425.097C426.639 8.54739 428.045 8.81221 429.317 9.34185C430.589 9.87149 431.591 10.5733 432.323 11.4472C433.094 12.3211 433.479 13.2744 433.479 14.3072V31.5868H424.635V14.625H408.333V31.5868H399.488Z" stroke="black" stroke-width="2" mask="url(#path-1-outside-1_7_13)"/>
<path d="M446.33 31.5868C444.788 31.5868 443.381 31.322 442.11 30.7923C440.838 30.2627 439.817 29.5609 439.046 28.687C438.314 27.8131 437.947 26.8597 437.947 25.8269V14.3072C437.947 13.2744 438.314 12.3211 439.046 11.4472C439.817 10.5733 440.838 9.87149 442.11 9.34185C443.381 8.81221 444.788 8.54739 446.33 8.54739H463.152V1H471.997V31.5868H446.33ZM446.85 25.5092H463.152V14.625H446.85V25.5092Z" stroke="black" stroke-width="2" mask="url(#path-1-outside-1_7_13)"/>
<path d="M486.333 31.5868C484.83 31.5868 483.443 31.322 482.171 30.7923C480.899 30.2627 479.878 29.5609 479.107 28.687C478.336 27.8131 477.951 26.8597 477.951 25.8269V24.675H486.795V25.5092H503.098V23.1258H486.333C484.83 23.1258 483.443 22.8609 482.171 22.3313C480.899 21.8017 479.878 21.0999 479.107 20.226C478.336 19.3521 477.951 18.3987 477.951 17.3659V14.3072C477.951 13.2744 478.336 12.3211 479.107 11.4472C479.878 10.5733 480.899 9.87149 482.171 9.34185C483.443 8.81221 484.83 8.54739 486.333 8.54739H503.56C505.102 8.54739 506.508 8.81221 507.78 9.34185C509.052 9.87149 510.073 10.5733 510.844 11.4472C511.615 12.3211 512 13.2744 512 14.3072V15.4592H503.098V14.625H486.795V17.0084H503.56C505.102 17.0084 506.508 17.2732 507.78 17.8029C509.052 18.3325 510.073 19.0343 510.844 19.9082C511.615 20.7821 512 21.7355 512 22.7683V25.8269C512 26.8597 511.615 27.8131 510.844 28.687C510.073 29.5609 509.052 30.2627 507.78 30.7923C506.508 31.322 505.102 31.5868 503.56 31.5868H486.333Z" stroke="black" stroke-width="2" mask="url(#path-1-outside-1_7_13)"/>
</g>
<mask id="path-2-outside-2_7_13" maskUnits="userSpaceOnUse" x="3" y="28.0731" width="330" height="26" fill="black">
<rect fill="white" x="3" y="28.0731" width="330" height="26"/>
<path d="M4 53.0001V30.6558H10.91V53.0001H4Z"/>
<path d="M16.483 53.0001V35.0006H36.4903C37.6947 35.0006 38.7936 35.2074 39.7872 35.6212C40.7808 36.035 41.5636 36.5833 42.1357 37.266C42.7379 37.9487 43.039 38.6936 43.039 39.5004V53.0001H36.129V39.7487H23.393V53.0001H16.483Z"/>
<path d="M55.3816 53.0001C54.1772 53.0001 53.0782 52.7932 52.0846 52.3794C51.0911 51.9656 50.2932 51.4174 49.691 50.7346C49.0888 50.0519 48.7877 49.3071 48.7877 48.5002V29.6628H55.6977V35.0006H65.4078V39.7487H55.6977V48.2519H65.4078V53.0001H55.3816Z"/>
<path d="M76.5257 53.0001C75.3514 53.0001 74.2675 52.7932 73.2739 52.3794C72.2803 51.9656 71.4825 51.4174 70.8803 50.7346C70.2781 50.0519 69.977 49.3071 69.977 48.5002V39.5004C69.977 38.6936 70.2781 37.9487 70.8803 37.266C71.4825 36.5833 72.2803 36.035 73.2739 35.6212C74.2675 35.2074 75.3514 35.0006 76.5257 35.0006H89.9843C91.1886 35.0006 92.2876 35.2074 93.2812 35.6212C94.2748 36.035 95.0576 36.5833 95.6297 37.266C96.2319 37.9487 96.5329 38.6936 96.5329 39.5004V46.3899H76.887V48.2519H96.5329V53.0001H76.5257ZM76.887 42.2314H89.623V39.7487H76.887V42.2314Z"/>
<path d="M101.887 53.0001V39.5004C101.887 38.6936 102.188 37.9487 102.79 37.266C103.392 36.5833 104.19 36.035 105.184 35.6212C106.177 35.2074 107.276 35.0006 108.481 35.0006H122.933V39.7487H108.797V53.0001H101.887Z"/>
<path d="M127.535 53.0001V35.0006H147.542C148.747 35.0006 149.846 35.2074 150.839 35.6212C151.833 36.035 152.616 36.5833 153.188 37.266C153.79 37.9487 154.091 38.6936 154.091 39.5004V53.0001H147.181V39.7487H134.445V53.0001H127.535Z"/>
<path d="M166.343 53.0001C165.139 53.0001 164.04 52.7932 163.046 52.3794C162.053 51.9656 161.255 51.4174 160.653 50.7346C160.081 50.0519 159.795 49.3071 159.795 48.5002V41.6107H179.44V39.7487H159.795V35.0006H179.802C181.006 35.0006 182.105 35.2074 183.099 35.6212C184.092 36.035 184.875 36.5833 185.447 37.266C186.049 37.9487 186.35 38.6936 186.35 39.5004V53.0001H166.343ZM166.704 48.2519H179.44V45.7692H166.704V48.2519Z"/>
<path d="M198.695 53.0001C197.491 53.0001 196.392 52.7932 195.398 52.3794C194.405 51.9656 193.607 51.4174 193.005 50.7346C192.402 50.0519 192.101 49.3071 192.101 48.5002V29.6628H199.011V35.0006H208.721V39.7487H199.011V48.2519H208.721V53.0001H198.695Z"/>
<path d="M213.336 53.0001V35.0006H220.246V53.0001H213.336ZM213.336 33.8833V29.1042H220.246V33.8833H213.336Z"/>
<path d="M231.063 53.0001C229.889 53.0001 228.805 52.7932 227.811 52.3794C226.818 51.9656 226.02 51.4174 225.418 50.7346C224.815 50.0519 224.514 49.3071 224.514 48.5002V39.5004C224.514 38.6936 224.815 37.9487 225.418 37.266C226.02 36.5833 226.818 36.035 227.811 35.6212C228.805 35.2074 229.889 35.0006 231.063 35.0006H244.522C245.726 35.0006 246.825 35.2074 247.819 35.6212C248.812 36.035 249.595 36.5833 250.167 37.266C250.769 37.9487 251.07 38.6936 251.07 39.5004V48.5002C251.07 49.3071 250.769 50.0519 250.167 50.7346C249.595 51.4174 248.812 51.9656 247.819 52.3794C246.825 52.7932 245.726 53.0001 244.522 53.0001H231.063ZM231.424 48.2519H244.16V39.7487H231.424V48.2519Z"/>
<path d="M255.544 53.0001V35.0006H275.552C276.756 35.0006 277.855 35.2074 278.848 35.6212C279.842 36.035 280.625 36.5833 281.197 37.266C281.799 37.9487 282.1 38.6936 282.1 39.5004V53.0001H275.19V39.7487H262.454V53.0001H255.544Z"/>
<path d="M294.353 53.0001C293.148 53.0001 292.049 52.7932 291.056 52.3794C290.062 51.9656 289.264 51.4174 288.662 50.7346C288.09 50.0519 287.804 49.3071 287.804 48.5002V41.6107H307.45V39.7487H287.804V35.0006H307.811C309.015 35.0006 310.114 35.2074 311.108 35.6212C312.102 36.035 312.884 36.5833 313.457 37.266C314.059 37.9487 314.36 38.6936 314.36 39.5004V53.0001H294.353ZM294.714 48.2519H307.45V45.7692H294.714V48.2519Z"/>
<path d="M325.423 53.0001C324.249 53.0001 323.165 52.7932 322.172 52.3794C321.178 51.9656 320.38 51.4174 319.778 50.7346C319.176 50.0519 318.875 49.3071 318.875 48.5002V29.0731H325.83V48.2519H331.114V53.0001H325.423Z"/>
</mask>
<g filter="url(#filter1_i_7_13)">
<path d="M4 53.0001V30.6558H10.91V53.0001H4Z" fill="#EE4E34"/>
<path d="M16.483 53.0001V35.0006H36.4903C37.6947 35.0006 38.7936 35.2074 39.7872 35.6212C40.7808 36.035 41.5636 36.5833 42.1357 37.266C42.7379 37.9487 43.039 38.6936 43.039 39.5004V53.0001H36.129V39.7487H23.393V53.0001H16.483Z" fill="#EE4E34"/>
<path d="M55.3816 53.0001C54.1772 53.0001 53.0782 52.7932 52.0846 52.3794C51.0911 51.9656 50.2932 51.4174 49.691 50.7346C49.0888 50.0519 48.7877 49.3071 48.7877 48.5002V29.6628H55.6977V35.0006H65.4078V39.7487H55.6977V48.2519H65.4078V53.0001H55.3816Z" fill="#EE4E34"/>
<path d="M76.5257 53.0001C75.3514 53.0001 74.2675 52.7932 73.2739 52.3794C72.2803 51.9656 71.4825 51.4174 70.8803 50.7346C70.2781 50.0519 69.977 49.3071 69.977 48.5002V39.5004C69.977 38.6936 70.2781 37.9487 70.8803 37.266C71.4825 36.5833 72.2803 36.035 73.2739 35.6212C74.2675 35.2074 75.3514 35.0006 76.5257 35.0006H89.9843C91.1886 35.0006 92.2876 35.2074 93.2812 35.6212C94.2748 36.035 95.0576 36.5833 95.6297 37.266C96.2319 37.9487 96.5329 38.6936 96.5329 39.5004V46.3899H76.887V48.2519H96.5329V53.0001H76.5257ZM76.887 42.2314H89.623V39.7487H76.887V42.2314Z" fill="#EE4E34"/>
<path d="M101.887 53.0001V39.5004C101.887 38.6936 102.188 37.9487 102.79 37.266C103.392 36.5833 104.19 36.035 105.184 35.6212C106.177 35.2074 107.276 35.0006 108.481 35.0006H122.933V39.7487H108.797V53.0001H101.887Z" fill="#EE4E34"/>
<path d="M127.535 53.0001V35.0006H147.542C148.747 35.0006 149.846 35.2074 150.839 35.6212C151.833 36.035 152.616 36.5833 153.188 37.266C153.79 37.9487 154.091 38.6936 154.091 39.5004V53.0001H147.181V39.7487H134.445V53.0001H127.535Z" fill="#EE4E34"/>
<path d="M166.343 53.0001C165.139 53.0001 164.04 52.7932 163.046 52.3794C162.053 51.9656 161.255 51.4174 160.653 50.7346C160.081 50.0519 159.795 49.3071 159.795 48.5002V41.6107H179.44V39.7487H159.795V35.0006H179.802C181.006 35.0006 182.105 35.2074 183.099 35.6212C184.092 36.035 184.875 36.5833 185.447 37.266C186.049 37.9487 186.35 38.6936 186.35 39.5004V53.0001H166.343ZM166.704 48.2519H179.44V45.7692H166.704V48.2519Z" fill="#EE4E34"/>
<path d="M198.695 53.0001C197.491 53.0001 196.392 52.7932 195.398 52.3794C194.405 51.9656 193.607 51.4174 193.005 50.7346C192.402 50.0519 192.101 49.3071 192.101 48.5002V29.6628H199.011V35.0006H208.721V39.7487H199.011V48.2519H208.721V53.0001H198.695Z" fill="#EE4E34"/>
<path d="M213.336 53.0001V35.0006H220.246V53.0001H213.336ZM213.336 33.8833V29.1042H220.246V33.8833H213.336Z" fill="#EE4E34"/>
<path d="M231.063 53.0001C229.889 53.0001 228.805 52.7932 227.811 52.3794C226.818 51.9656 226.02 51.4174 225.418 50.7346C224.815 50.0519 224.514 49.3071 224.514 48.5002V39.5004C224.514 38.6936 224.815 37.9487 225.418 37.266C226.02 36.5833 226.818 36.035 227.811 35.6212C228.805 35.2074 229.889 35.0006 231.063 35.0006H244.522C245.726 35.0006 246.825 35.2074 247.819 35.6212C248.812 36.035 249.595 36.5833 250.167 37.266C250.769 37.9487 251.07 38.6936 251.07 39.5004V48.5002C251.07 49.3071 250.769 50.0519 250.167 50.7346C249.595 51.4174 248.812 51.9656 247.819 52.3794C246.825 52.7932 245.726 53.0001 244.522 53.0001H231.063ZM231.424 48.2519H244.16V39.7487H231.424V48.2519Z" fill="#EE4E34"/>
<path d="M255.544 53.0001V35.0006H275.552C276.756 35.0006 277.855 35.2074 278.848 35.6212C279.842 36.035 280.625 36.5833 281.197 37.266C281.799 37.9487 282.1 38.6936 282.1 39.5004V53.0001H275.19V39.7487H262.454V53.0001H255.544Z" fill="#EE4E34"/>
<path d="M294.353 53.0001C293.148 53.0001 292.049 52.7932 291.056 52.3794C290.062 51.9656 289.264 51.4174 288.662 50.7346C288.09 50.0519 287.804 49.3071 287.804 48.5002V41.6107H307.45V39.7487H287.804V35.0006H307.811C309.015 35.0006 310.114 35.2074 311.108 35.6212C312.102 36.035 312.884 36.5833 313.457 37.266C314.059 37.9487 314.36 38.6936 314.36 39.5004V53.0001H294.353ZM294.714 48.2519H307.45V45.7692H294.714V48.2519Z" fill="#EE4E34"/>
<path d="M325.423 53.0001C324.249 53.0001 323.165 52.7932 322.172 52.3794C321.178 51.9656 320.38 51.4174 319.778 50.7346C319.176 50.0519 318.875 49.3071 318.875 48.5002V29.0731H325.83V48.2519H331.114V53.0001H325.423Z" fill="#EE4E34"/>
</g>
<path d="M4 53.0001V30.6558H10.91V53.0001H4Z" stroke="black" stroke-width="2" mask="url(#path-2-outside-2_7_13)"/>
<path d="M16.483 53.0001V35.0006H36.4903C37.6947 35.0006 38.7936 35.2074 39.7872 35.6212C40.7808 36.035 41.5636 36.5833 42.1357 37.266C42.7379 37.9487 43.039 38.6936 43.039 39.5004V53.0001H36.129V39.7487H23.393V53.0001H16.483Z" stroke="black" stroke-width="2" mask="url(#path-2-outside-2_7_13)"/>
<path d="M55.3816 53.0001C54.1772 53.0001 53.0782 52.7932 52.0846 52.3794C51.0911 51.9656 50.2932 51.4174 49.691 50.7346C49.0888 50.0519 48.7877 49.3071 48.7877 48.5002V29.6628H55.6977V35.0006H65.4078V39.7487H55.6977V48.2519H65.4078V53.0001H55.3816Z" stroke="black" stroke-width="2" mask="url(#path-2-outside-2_7_13)"/>
<path d="M76.5257 53.0001C75.3514 53.0001 74.2675 52.7932 73.2739 52.3794C72.2803 51.9656 71.4825 51.4174 70.8803 50.7346C70.2781 50.0519 69.977 49.3071 69.977 48.5002V39.5004C69.977 38.6936 70.2781 37.9487 70.8803 37.266C71.4825 36.5833 72.2803 36.035 73.2739 35.6212C74.2675 35.2074 75.3514 35.0006 76.5257 35.0006H89.9843C91.1886 35.0006 92.2876 35.2074 93.2812 35.6212C94.2748 36.035 95.0576 36.5833 95.6297 37.266C96.2319 37.9487 96.5329 38.6936 96.5329 39.5004V46.3899H76.887V48.2519H96.5329V53.0001H76.5257ZM76.887 42.2314H89.623V39.7487H76.887V42.2314Z" stroke="black" stroke-width="2" mask="url(#path-2-outside-2_7_13)"/>
<path d="M101.887 53.0001V39.5004C101.887 38.6936 102.188 37.9487 102.79 37.266C103.392 36.5833 104.19 36.035 105.184 35.6212C106.177 35.2074 107.276 35.0006 108.481 35.0006H122.933V39.7487H108.797V53.0001H101.887Z" stroke="black" stroke-width="2" mask="url(#path-2-outside-2_7_13)"/>
<path d="M127.535 53.0001V35.0006H147.542C148.747 35.0006 149.846 35.2074 150.839 35.6212C151.833 36.035 152.616 36.5833 153.188 37.266C153.79 37.9487 154.091 38.6936 154.091 39.5004V53.0001H147.181V39.7487H134.445V53.0001H127.535Z" stroke="black" stroke-width="2" mask="url(#path-2-outside-2_7_13)"/>
<path d="M166.343 53.0001C165.139 53.0001 164.04 52.7932 163.046 52.3794C162.053 51.9656 161.255 51.4174 160.653 50.7346C160.081 50.0519 159.795 49.3071 159.795 48.5002V41.6107H179.44V39.7487H159.795V35.0006H179.802C181.006 35.0006 182.105 35.2074 183.099 35.6212C184.092 36.035 184.875 36.5833 185.447 37.266C186.049 37.9487 186.35 38.6936 186.35 39.5004V53.0001H166.343ZM166.704 48.2519H179.44V45.7692H166.704V48.2519Z" stroke="black" stroke-width="2" mask="url(#path-2-outside-2_7_13)"/>
<path d="M198.695 53.0001C197.491 53.0001 196.392 52.7932 195.398 52.3794C194.405 51.9656 193.607 51.4174 193.005 50.7346C192.402 50.0519 192.101 49.3071 192.101 48.5002V29.6628H199.011V35.0006H208.721V39.7487H199.011V48.2519H208.721V53.0001H198.695Z" stroke="black" stroke-width="2" mask="url(#path-2-outside-2_7_13)"/>
<path d="M213.336 53.0001V35.0006H220.246V53.0001H213.336ZM213.336 33.8833V29.1042H220.246V33.8833H213.336Z" stroke="black" stroke-width="2" mask="url(#path-2-outside-2_7_13)"/>
<path d="M231.063 53.0001C229.889 53.0001 228.805 52.7932 227.811 52.3794C226.818 51.9656 226.02 51.4174 225.418 50.7346C224.815 50.0519 224.514 49.3071 224.514 48.5002V39.5004C224.514 38.6936 224.815 37.9487 225.418 37.266C226.02 36.5833 226.818 36.035 227.811 35.6212C228.805 35.2074 229.889 35.0006 231.063 35.0006H244.522C245.726 35.0006 246.825 35.2074 247.819 35.6212C248.812 36.035 249.595 36.5833 250.167 37.266C250.769 37.9487 251.07 38.6936 251.07 39.5004V48.5002C251.07 49.3071 250.769 50.0519 250.167 50.7346C249.595 51.4174 248.812 51.9656 247.819 52.3794C246.825 52.7932 245.726 53.0001 244.522 53.0001H231.063ZM231.424 48.2519H244.16V39.7487H231.424V48.2519Z" stroke="black" stroke-width="2" mask="url(#path-2-outside-2_7_13)"/>
<path d="M255.544 53.0001V35.0006H275.552C276.756 35.0006 277.855 35.2074 278.848 35.6212C279.842 36.035 280.625 36.5833 281.197 37.266C281.799 37.9487 282.1 38.6936 282.1 39.5004V53.0001H275.19V39.7487H262.454V53.0001H255.544Z" stroke="black" stroke-width="2" mask="url(#path-2-outside-2_7_13)"/>
<path d="M294.353 53.0001C293.148 53.0001 292.049 52.7932 291.056 52.3794C290.062 51.9656 289.264 51.4174 288.662 50.7346C288.09 50.0519 287.804 49.3071 287.804 48.5002V41.6107H307.45V39.7487H287.804V35.0006H307.811C309.015 35.0006 310.114 35.2074 311.108 35.6212C312.102 36.035 312.884 36.5833 313.457 37.266C314.059 37.9487 314.36 38.6936 314.36 39.5004V53.0001H294.353ZM294.714 48.2519H307.45V45.7692H294.714V48.2519Z" stroke="black" stroke-width="2" mask="url(#path-2-outside-2_7_13)"/>
<path d="M325.423 53.0001C324.249 53.0001 323.165 52.7932 322.172 52.3794C321.178 51.9656 320.38 51.4174 319.778 50.7346C319.176 50.0519 318.875 49.3071 318.875 48.5002V29.0731H325.83V48.2519H331.114V53.0001H325.423Z" stroke="black" stroke-width="2" mask="url(#path-2-outside-2_7_13)"/>
<defs>
<filter id="filter0_d_7_13" x="0.89502" y="0" width="516.105" height="49.6833" filterUnits="userSpaceOnUse" color-interpolation-filters="sRGB">
<feFlood flood-opacity="0" result="BackgroundImageFix"/>
<feColorMatrix in="SourceAlpha" type="matrix" values="0 0 0 0 0 0 0 0 0 0 0 0 0 0 0 0 0 0 127 0" result="hardAlpha"/>
<feOffset dy="4"/>
<feGaussianBlur stdDeviation="2"/>
<feComposite in2="hardAlpha" operator="out"/>
<feColorMatrix type="matrix" values="0 0 0 0 0 0 0 0 0 0 0 0 0 0 0 0 0 0 0.25 0"/>
<feBlend mode="normal" in2="BackgroundImageFix" result="effect1_dropShadow_7_13"/>
<feBlend mode="normal" in="SourceGraphic" in2="effect1_dropShadow_7_13" result="shape"/>
</filter>
<filter id="filter1_i_7_13" x="3" y="28.0731" width="331.114" height="29.927" filterUnits="userSpaceOnUse" color-interpolation-filters="sRGB">
<feFlood flood-opacity="0" result="BackgroundImageFix"/>
<feBlend mode="normal" in="SourceGraphic" in2="BackgroundImageFix" result="shape"/>
<feColorMatrix in="SourceAlpha" type="matrix" values="0 0 0 0 0 0 0 0 0 0 0 0 0 0 0 0 0 0 127 0" result="hardAlpha"/>
<feOffset dx="2" dy="4"/>
<feGaussianBlur stdDeviation="2"/>
<feComposite in2="hardAlpha" operator="arithmetic" k2="-1" k3="1"/>
<feColorMatrix type="matrix" values="0 0 0 0 0 0 0 0 0 0 0 0 0 0 0 0 0 0 0.55 0"/>
<feBlend mode="normal" in2="shape" result="effect1_innerShadow_7_13"/>
</filter>
</defs>
</svg>
