<svg width="80" height="80" viewBox="0 0 80 80" fill="none" xmlns="http://www.w3.org/2000/svg">
<circle cx="39.5965" cy="39.5965" r="28" transform="rotate(45.4948 39.5965 39.5965)" fill="black"/>
<g opacity="0.8" filter="url(#filter0_d_7_16)">
<mask id="path-2-inside-1_7_16" fill="white">
<path d="M56.9906 57.1705C53.4907 60.6105 49.0493 62.9354 44.2281 63.8511C39.4069 64.7669 34.4224 64.2325 29.905 62.3154C25.3875 60.3984 21.5399 57.1847 18.8489 53.081C16.1578 48.9772 14.7441 44.1676 14.7865 39.2604C14.8288 34.3532 16.3254 29.5687 19.087 25.5121C21.8485 21.4554 25.751 18.3087 30.3009 16.47C34.8508 14.6312 39.8438 14.1829 44.6485 15.1819C49.4531 16.1808 53.8537 18.582 57.2937 22.0819L54.4795 24.8479C51.5866 21.9046 47.8859 19.8852 43.8453 19.0451C39.8047 18.2051 35.6057 18.582 31.7794 20.1284C27.953 21.6747 24.6712 24.321 22.3488 27.7325C20.0264 31.1441 18.7678 35.1677 18.7322 39.2945C18.6965 43.4213 19.8854 47.4661 22.1486 50.9172C24.4117 54.3683 27.6473 57.0709 31.4464 58.6831C35.2455 60.2953 39.4373 60.7447 43.4918 59.9746C47.5463 59.2044 51.2813 57.2493 54.2247 54.3564L56.9906 57.1705Z"/>
</mask>
<path d="M56.9906 57.1705C53.4907 60.6105 49.0493 62.9354 44.2281 63.8511C39.4069 64.7669 34.4224 64.2325 29.905 62.3154C25.3875 60.3984 21.5399 57.1847 18.8489 53.081C16.1578 48.9772 14.7441 44.1676 14.7865 39.2604C14.8288 34.3532 16.3254 29.5687 19.087 25.5121C21.8485 21.4554 25.751 18.3087 30.3009 16.47C34.8508 14.6312 39.8438 14.1829 44.6485 15.1819C49.4531 16.1808 53.8537 18.582 57.2937 22.0819L54.4795 24.8479C51.5866 21.9046 47.8859 19.8852 43.8453 19.0451C39.8047 18.2051 35.6057 18.582 31.7794 20.1284C27.953 21.6747 24.6712 24.321 22.3488 27.7325C20.0264 31.1441 18.7678 35.1677 18.7322 39.2945C18.6965 43.4213 19.8854 47.4661 22.1486 50.9172C24.4117 54.3683 27.6473 57.0709 31.4464 58.6831C35.2455 60.2953 39.4373 60.7447 43.4918 59.9746C47.5463 59.2044 51.2813 57.2493 54.2247 54.3564L56.9906 57.1705Z" fill="#DADB5D" fill-opacity="0.49" shape-rendering="crispEdges"/>
<path d="M56.9906 57.1705C53.4907 60.6105 49.0493 62.9354 44.2281 63.8511C39.4069 64.7669 34.4224 64.2325 29.905 62.3154C25.3875 60.3984 21.5399 57.1847 18.8489 53.081C16.1578 48.9772 14.7441 44.1676 14.7865 39.2604C14.8288 34.3532 16.3254 29.5687 19.087 25.5121C21.8485 21.4554 25.751 18.3087 30.3009 16.47C34.8508 14.6312 39.8438 14.1829 44.6485 15.1819C49.4531 16.1808 53.8537 18.582 57.2937 22.0819L54.4795 24.8479C51.5866 21.9046 47.8859 19.8852 43.8453 19.0451C39.8047 18.2051 35.6057 18.582 31.7794 20.1284C27.953 21.6747 24.6712 24.321 22.3488 27.7325C20.0264 31.1441 18.7678 35.1677 18.7322 39.2945C18.6965 43.4213 19.8854 47.4661 22.1486 50.9172C24.4117 54.3683 27.6473 57.0709 31.4464 58.6831C35.2455 60.2953 39.4373 60.7447 43.4918 59.9746C47.5463 59.2044 51.2813 57.2493 54.2247 54.3564L56.9906 57.1705Z" stroke="black" stroke-width="2" shape-rendering="crispEdges" mask="url(#path-2-inside-1_7_16)"/>
</g>
<g filter="url(#filter1_d_7_16)">
<mask id="path-3-inside-2_7_16" fill="white">
<path d="M51.7372 51.703C54.9801 48.5157 56.824 44.1706 56.8633 39.6238C56.9026 35.0769 55.134 30.7007 51.9466 27.4578C48.7593 24.2149 44.4142 22.371 39.8674 22.3317C35.3205 22.2925 30.9443 24.061 27.7014 27.2484L31.5475 31.1615C33.7525 28.9942 36.7283 27.7916 39.82 27.8183C42.9117 27.845 45.8662 29.0988 48.0335 31.3039C50.2008 33.5089 51.4034 36.4847 51.3767 39.5764C51.35 42.6681 50.0962 45.6226 47.8912 47.7899L51.7372 51.703Z"/>
</mask>
<path d="M51.7372 51.703C54.9801 48.5157 56.824 44.1706 56.8633 39.6238C56.9026 35.0769 55.134 30.7007 51.9466 27.4578C48.7593 24.2149 44.4142 22.371 39.8674 22.3317C35.3205 22.2925 30.9443 24.061 27.7014 27.2484L31.5475 31.1615C33.7525 28.9942 36.7283 27.7916 39.82 27.8183C42.9117 27.845 45.8662 29.0988 48.0335 31.3039C50.2008 33.5089 51.4034 36.4847 51.3767 39.5764C51.35 42.6681 50.0962 45.6226 47.8912 47.7899L51.7372 51.703Z" fill="#E45D03" fill-opacity="0.5" shape-rendering="crispEdges"/>
<path d="M51.7372 51.703C54.9801 48.5157 56.824 44.1706 56.8633 39.6238C56.9026 35.0769 55.134 30.7007 51.9466 27.4578C48.7593 24.2149 44.4142 22.371 39.8674 22.3317C35.3205 22.2925 30.9443 24.061 27.7014 27.2484L31.5475 31.1615C33.7525 28.9942 36.7283 27.7916 39.82 27.8183C42.9117 27.845 45.8662 29.0988 48.0335 31.3039C50.2008 33.5089 51.4034 36.4847 51.3767 39.5764C51.35 42.6681 50.0962 45.6226 47.8912 47.7899L51.7372 51.703Z" stroke="black" stroke-width="2" shape-rendering="crispEdges" mask="url(#path-3-inside-2_7_16)"/>
</g>
<g filter="url(#filter2_d_7_16)">
<mask id="path-4-inside-3_7_16" fill="white">
<path d="M53.4262 53.667C50.8912 56.1586 47.6445 57.8007 44.1353 58.366C40.6261 58.9314 37.0279 58.3921 33.8387 56.8228L40.2207 43.8531C40.721 44.0994 41.2856 44.184 41.8361 44.0953C42.3867 44.0066 42.8961 43.7489 43.2938 43.358L53.4262 53.667Z"/>
</mask>
<path d="M53.4262 53.667C50.8912 56.1586 47.6445 57.8007 44.1353 58.366C40.6261 58.9314 37.0279 58.3921 33.8387 56.8228L40.2207 43.8531C40.721 44.0994 41.2856 44.184 41.8361 44.0953C42.3867 44.0066 42.8961 43.7489 43.2938 43.358L53.4262 53.667Z" fill="#E45D03" fill-opacity="0.2" shape-rendering="crispEdges"/>
<path d="M53.4262 53.667C50.8912 56.1586 47.6445 57.8007 44.1353 58.366C40.6261 58.9314 37.0279 58.3921 33.8387 56.8228L40.2207 43.8531C40.721 44.0994 41.2856 44.184 41.8361 44.0953C42.3867 44.0066 42.8961 43.7489 43.2938 43.358L53.4262 53.667Z" stroke="black" stroke-width="2" shape-rendering="crispEdges" mask="url(#path-4-inside-3_7_16)"/>
</g>
<g filter="url(#filter3_d_7_16)">
<path d="M46.3717 44.7345C45.0522 46.0314 43.3808 46.9108 41.5687 47.2617C39.7567 47.6126 37.8854 47.4192 36.1915 46.7058C34.4977 45.9925 33.0573 44.7913 32.0526 43.2541C31.0478 41.717 30.5238 39.9129 30.5469 38.0701C30.5699 36.2272 31.1389 34.4284 32.182 32.901C33.225 31.3736 34.6953 30.1863 36.4068 29.4892C38.1183 28.7921 39.9941 28.6165 41.7972 28.9847C43.6002 29.3528 45.2495 30.2482 46.5364 31.5575L43.9577 34.092C43.1683 33.2887 42.1565 32.7395 41.0504 32.5136C39.9442 32.2878 38.7934 32.3955 37.7435 32.8232C36.6936 33.2508 35.7916 33.9792 35.1517 34.9162C34.5119 35.8532 34.1628 36.9567 34.1486 38.0872C34.1345 39.2178 34.456 40.3245 35.0723 41.2675C35.6887 42.2105 36.5723 42.9474 37.6115 43.385C38.6506 43.8226 39.7986 43.9413 40.9102 43.7261C42.0218 43.5108 43.0472 42.9713 43.8567 42.1757L46.3717 44.7345Z" fill="#EE4E34"/>
</g>
<g filter="url(#filter4_d_7_16)">
<path d="M20.6406 45.7187V30.8932H23.8278V42.511H35.4456V45.7187H20.6406Z" fill="#F2F435"/>
</g>
<g filter="url(#filter5_d_7_16)">
<path d="M43.4397 38.6851L54.4927 48.5658L56.6168 46.1896L47.9553 38.4468L55.6982 29.7853L53.3067 27.6474L43.4397 38.6851Z" fill="#EE4E34"/>
</g>
<defs>
<filter id="filter0_d_7_16" x="10.7856" y="14.6624" width="50.5078" height="57.6246" filterUnits="userSpaceOnUse" color-interpolation-filters="sRGB">
<feFlood flood-opacity="0" result="BackgroundImageFix"/>
<feColorMatrix in="SourceAlpha" type="matrix" values="0 0 0 0 0 0 0 0 0 0 0 0 0 0 0 0 0 0 127 0" result="hardAlpha"/>
<feOffset dy="4"/>
<feGaussianBlur stdDeviation="2"/>
<feComposite in2="hardAlpha" operator="out"/>
<feColorMatrix type="matrix" values="0 0 0 0 0 0 0 0 0 0 0 0 0 0 0 0 0 0 0.25 0"/>
<feBlend mode="normal" in2="BackgroundImageFix" result="effect1_dropShadow_7_16"/>
<feBlend mode="normal" in="SourceGraphic" in2="effect1_dropShadow_7_16" result="shape"/>
</filter>
<filter id="filter1_d_7_16" x="23.7012" y="22.3311" width="37.1626" height="37.3719" filterUnits="userSpaceOnUse" color-interpolation-filters="sRGB">
<feFlood flood-opacity="0" result="BackgroundImageFix"/>
<feColorMatrix in="SourceAlpha" type="matrix" values="0 0 0 0 0 0 0 0 0 0 0 0 0 0 0 0 0 0 127 0" result="hardAlpha"/>
<feOffset dy="4"/>
<feGaussianBlur stdDeviation="2"/>
<feComposite in2="hardAlpha" operator="out"/>
<feColorMatrix type="matrix" values="0 0 0 0 0 0 0 0 0 0 0 0 0 0 0 0 0 0 0.25 0"/>
<feBlend mode="normal" in2="BackgroundImageFix" result="effect1_dropShadow_7_16"/>
<feBlend mode="normal" in="SourceGraphic" in2="effect1_dropShadow_7_16" result="shape"/>
</filter>
<filter id="filter2_d_7_16" x="29.8389" y="43.358" width="27.5874" height="23.2263" filterUnits="userSpaceOnUse" color-interpolation-filters="sRGB">
<feFlood flood-opacity="0" result="BackgroundImageFix"/>
<feColorMatrix in="SourceAlpha" type="matrix" values="0 0 0 0 0 0 0 0 0 0 0 0 0 0 0 0 0 0 127 0" result="hardAlpha"/>
<feOffset dy="4"/>
<feGaussianBlur stdDeviation="2"/>
<feComposite in2="hardAlpha" operator="out"/>
<feColorMatrix type="matrix" values="0 0 0 0 0 0 0 0 0 0 0 0 0 0 0 0 0 0 0.25 0"/>
<feBlend mode="normal" in2="BackgroundImageFix" result="effect1_dropShadow_7_16"/>
<feBlend mode="normal" in="SourceGraphic" in2="effect1_dropShadow_7_16" result="shape"/>
</filter>
<filter id="filter3_d_7_16" x="26.5464" y="28.7969" width="23.9902" height="26.6354" filterUnits="userSpaceOnUse" color-interpolation-filters="sRGB">
<feFlood flood-opacity="0" result="BackgroundImageFix"/>
<feColorMatrix in="SourceAlpha" type="matrix" values="0 0 0 0 0 0 0 0 0 0 0 0 0 0 0 0 0 0 127 0" result="hardAlpha"/>
<feOffset dy="4"/>
<feGaussianBlur stdDeviation="2"/>
<feComposite in2="hardAlpha" operator="out"/>
<feColorMatrix type="matrix" values="0 0 0 0 0 0 0 0 0 0 0 0 0 0 0 0 0 0 0.25 0"/>
<feBlend mode="normal" in2="BackgroundImageFix" result="effect1_dropShadow_7_16"/>
<feBlend mode="normal" in="SourceGraphic" in2="effect1_dropShadow_7_16" result="shape"/>
</filter>
<filter id="filter4_d_7_16" x="16.6406" y="30.8932" width="22.8052" height="22.8256" filterUnits="userSpaceOnUse" color-interpolation-filters="sRGB">
<feFlood flood-opacity="0" result="BackgroundImageFix"/>
<feColorMatrix in="SourceAlpha" type="matrix" values="0 0 0 0 0 0 0 0 0 0 0 0 0 0 0 0 0 0 127 0" result="hardAlpha"/>
<feOffset dy="4"/>
<feGaussianBlur stdDeviation="2"/>
<feComposite in2="hardAlpha" operator="out"/>
<feColorMatrix type="matrix" values="0 0 0 0 0 0 0 0 0 0 0 0 0 0 0 0 0 0 0.25 0"/>
<feBlend mode="normal" in2="BackgroundImageFix" result="effect1_dropShadow_7_16"/>
<feBlend mode="normal" in="SourceGraphic" in2="effect1_dropShadow_7_16" result="shape"/>
</filter>
<filter id="filter5_d_7_16" x="39.4395" y="27.6475" width="21.1772" height="28.9183" filterUnits="userSpaceOnUse" color-interpolation-filters="sRGB">
<feFlood flood-opacity="0" result="BackgroundImageFix"/>
<feColorMatrix in="SourceAlpha" type="matrix" values="0 0 0 0 0 0 0 0 0 0 0 0 0 0 0 0 0 0 127 0" result="hardAlpha"/>
<feOffset dy="4"/>
<feGaussianBlur stdDeviation="2"/>
<feComposite in2="hardAlpha" operator="out"/>
<feColorMatrix type="matrix" values="0 0 0 0 0 0 0 0 0 0 0 0 0 0 0 0 0 0 0.25 0"/>
<feBlend mode="normal" in2="BackgroundImageFix" result="effect1_dropShadow_7_16"/>
<feBlend mode="normal" in="SourceGraphic" in2="effect1_dropShadow_7_16" result="shape"/>
</filter>
</defs>
</svg>
